SplineFontDB: 3.0
FontName: Mooli
FullName: Mooli
FamilyName: Mooli
Weight: Book
Copyright: Copyright (c) 2012 by vernon adams. All rights reserved.
Version: 1.000
ItalicAngle: 0
UnderlinePosition: -119
UnderlineWidth: 119
Ascent: 1638
Descent: 410
sfntRevision: 0x00010000
LayerCount: 2
Layer: 0 0 "Back"  1
Layer: 1 0 "Fore"  0
XUID: [1021 204 904141431 4207997]
FSType: 0
OS2Version: 4
OS2_WeightWidthSlopeOnly: 0
OS2_UseTypoMetrics: 1
CreationTime: 1305549013
ModificationTime: 1347543257
PfmFamily: 33
TTFWeight: 400
TTFWidth: 5
LineGap: 0
VLineGap: 0
OS2TypoAscent: 1978
OS2TypoAOffset: 0
OS2TypoDescent: -679
OS2TypoDOffset: 0
OS2TypoLinegap: 0
OS2WinAscent: 1978
OS2WinAOffset: 0
OS2WinDescent: 679
OS2WinDOffset: 0
HheadAscent: 1978
HheadAOffset: 0
HheadDescent: -679
HheadDOffset: 0
OS2FamilyClass: 2053
OS2Vendor: 'newt'
MarkAttachClasses: 1
DEI: 91125
ShortTable: maxp 16
  1
  0
  331
  124
  7
  89
  4
  1
  0
  0
  0
  0
  0
  0
  3
  1
EndShort
LangName: 1033 "" "" "Regular" "" "" "Version 1.000" "" "Mooli is a trademark of vernon adams." "vernon adams" "vernon adams" "Copyright (c) 2011 by vernon adams. All rights reserved." "" "" "" "" "" "" "" "Mooli" 
GaspTable: 3 8 2 16 1 65535 3 0
Encoding: Custom
UnicodeInterp: none
NameList: Adobe Glyph List
DisplaySize: -48
AntiAlias: 1
FitToEm: 1
WinInfo: 34 17 6
BeginPrivate: 6
OtherBlues 11 [-464 -427]
BlueValues 47 [-26 0 1026 1051 1438 1453 1456 1483 1490 1526]
StdHW 5 [148]
StdVW 5 [165]
StemSnapH 20 [20 125 137 142 148]
StemSnapV 9 [165 172]
EndPrivate
Grid
-2048 1455.98640625 m 0
 4096 1455.98640625 l 0
  Named: "CAP" 
-2048 1335.06673177 m 0
 4096 1335.06673177 l 0
-2048 1483.06673177 m 0
 4096 1483.06673177 l 0
-2048 1525.92150879 m 0
 4096 1525.92150879 l 0
  Named: "ascender" 
-2048 -23 m 0
 4096 -23 l 0
-2048 125 m 4
 4096 125 l 4
-2048 909.599609375 m 0
 4096 909.599609375 l 0
-2048 922.06072998 m 0
 4096 922.06072998 l 0
-2048 1052.06054688 m 0
 4096 1052.06054688 l 0
EndSplineSet
BeginChars: 335 335

StartChar: exclam
Encoding: 2 33 2
Width: 737
Flags: W
HStem: -23 206<260 474> 1431 20G<260 426>
VStem: 260 214<-23 183> 260 166<373 1451>
LayerCount: 2
Fore
SplineSet
260 183 m 1xe0
 474 183 l 1
 474 -23 l 1
 260 -23 l 1
 260 183 l 1xe0
426 373 m 1xd0
 260 373 l 1
 260 1451 l 1
 426 1451 l 1
 426 373 l 1xd0
EndSplineSet
EndChar

StartChar: quotedbl
Encoding: 3 34 3
Width: 720
Flags: W
HStem: 989 462<150 281 439 569>
VStem: 114 167<1267.02 1451> 150 131<989 1172.98> 403 166<1267.02 1451> 439 130<989 1172.98>
LayerCount: 2
Fore
SplineSet
439 989 m 1x88
 403 1451 l 1
 569 1451 l 1x90
 569 989 l 1
 439 989 l 1x88
150 989 m 1xa0
 114 1451 l 1
 281 1451 l 1xc0
 281 989 l 1
 150 989 l 1xa0
EndSplineSet
EndChar

StartChar: numbersign
Encoding: 4 35 4
Width: 1242
Flags: W
HStem: 485 126<53 294 460 699 869 1107> 886 124<120 368 538 775 943 1170>
LayerCount: 2
Fore
SplineSet
1184 1010 m 1
 1170 886 l 1
 920 886 l 1
 869 611 l 1
 1121 611 l 1
 1107 485 l 1
 847 485 l 1
 764 60 l 1
 619 60 l 1
 699 485 l 1
 438 485 l 1
 356 60 l 1
 210 60 l 1
 294 485 l 1
 42 485 l 1
 53 611 l 1
 318 611 l 1
 334 705 351 793 368 886 c 1
 107 886 l 1
 120 1010 l 1
 390 1010 l 1
 469 1420 l 1
 615 1420 l 1
 538 1010 l 1
 799 1010 l 1
 875 1420 l 1
 1021 1420 l 1
 943 1010 l 1
 1184 1010 l 1
775 886 m 1
 514 886 l 1
 460 611 l 1
 724 611 l 1
 775 886 l 1
EndSplineSet
EndChar

StartChar: dollar
Encoding: 5 36 5
Width: 1190
Flags: W
HStem: -16 143<343.206 531 656 780.393> 1293 144<419.623 534 658 871.029>
VStem: 137 189<920.177 1201.43> 534 124<-172 -16 131 605 818 1293 1439 1575> 901 179<235.144 483.547>
LayerCount: 2
Fore
SplineSet
534 1293 m 1
 414 1278 326 1193 326 1059 c 0
 326 913 425 858 532 818 c 1
 534 1293 l 1
251 223 m 1
 325 173 421 132 531 127 c 1
 534 648 l 1
 390 712 240 772 169 904 c 0
 148 944 137 991 137 1047 c 0
 137 1164 195 1254 259 1315 c 0
 325 1377 421 1428 534 1437 c 1
 530 1575 l 1
 654 1575 l 1
 657 1439 l 1
 798 1436 917 1394 997 1326 c 1
 948 1198 l 1
 878 1261 781 1295 658 1299 c 1
 656 770 l 1
 779 722 888 677 972 604 c 0
 1038 547 1080 477 1080 361 c 0
 1080 177 957 74 819 24 c 0
 768 5 713 -6 656 -11 c 1
 659 -172 l 1
 536 -172 l 1
 532 -16 l 1
 393 -13 291 25 202 89 c 1
 251 223 l 1
654 131 m 1
 758 145 841 192 881 270 c 0
 894 296 901 325 901 358 c 0
 901 507 765 559 658 605 c 1
 654 131 l 1
EndSplineSet
EndChar

StartChar: percent
Encoding: 6 37 6
Width: 1985
Flags: W
HStem: -27 113<1324 1579.59> -5 21G<440 606.561> 622 113<1325.34 1580.14> 686 113<395.14 650.867> 1335 112<396.338 651.355>
VStem: 168 144<885.224 1245.4> 734 143<888.278 1246.87> 1097 144<176.214 528.817> 1662 144<175.882 535.661>
LayerCount: 2
Fore
SplineSet
1662 357 m 0xaf80
 1662 504 1600 622 1454 622 c 0
 1306 622 1241 497 1241 350 c 0
 1241 234 1281 148 1358 107 c 0
 1384 93 1416 86 1452 86 c 256
 1599 86 1662 211 1662 357 c 0xaf80
1455 735 m 0
 1682 735 1806 582 1806 356 c 0
 1806 180 1720 59 1597 3 c 0
 1553 -17 1504 -27 1449 -27 c 0
 1273 -27 1167 70 1121 202 c 0
 1105 248 1097 298 1097 351 c 0
 1097 528 1182 649 1306 705 c 0
 1350 725 1400 735 1455 735 c 0
526 1447 m 0
 753 1447 877 1294 877 1068 c 0
 877 892 791 772 668 716 c 0
 624 696 575 686 520 686 c 0x1f80
 344 686 237 783 192 915 c 0
 176 961 168 1011 168 1064 c 0
 168 1240 253 1363 377 1418 c 0
 421 1438 471 1447 526 1447 c 0
1344 1436 m 1
 1499 1436 l 1
 594 -5 l 1
 440 -5 l 1x4f80
 1344 1436 l 1
312 1065 m 0
 312 917 376 799 524 799 c 256x1f80
 670 799 734 923 734 1069 c 0
 734 1186 695 1273 618 1314 c 0
 592 1328 560 1335 525 1335 c 0
 377 1335 312 1212 312 1065 c 0
EndSplineSet
EndChar

StartChar: ampersand
Encoding: 7 38 7
Width: 1647
Flags: W
HStem: -27 143<461.689 874.659> -12 21G<1412 1512.94> 1340 133<525.701 810.97>
VStem: 115 180<257.914 555.129> 299 173<1037.39 1286.16> 865 171<1065.14 1288.49> 1296 167<622.6 863>
LayerCount: 2
Fore
SplineSet
1166 186 m 1x7e
 1047 70 894 -27 661 -27 c 0xbe
 421 -27 239 62 156 220 c 0
 128 273 115 334 115 402 c 0
 115 523 169 607 233 672 c 0
 304 744 400 802 494 852 c 1
 425 921 351 988 315 1086 c 0
 304 1115 299 1147 299 1182 c 0
 299 1381 462 1473 661 1473 c 0
 820 1473 943 1414 1004 1314 c 0
 1026 1278 1036 1237 1036 1188 c 0
 1036 1096 990 1029 942 977 c 0
 885 915 807 864 729 822 c 1
 1144 398 l 1
 1211 493 1262 618 1285 756 c 0
 1292 800 1296 842 1296 884 c 1
 1463 863 l 1
 1454 625 1371 427 1260 284 c 1
 1334 208 1399 150 1508 114 c 0
 1539 104 1576 95 1618 86 c 1
 1486 -12 l 1
 1338 10 1256 100 1166 186 c 1x7e
1058 291 m 1
 1056 291 1048 298 1034 311 c 0
 967 375 892 454 823 523 c 2
 594 750 l 1
 485 694 374 632 320 522 c 0
 303 488 295 449 295 406 c 0
 295 259 398 176 512 138 c 0
 556 123 605 116 658 116 c 0
 848 116 961 197 1058 291 c 1
669 1340 m 0
 559 1340 472 1288 472 1178 c 0
 472 1087 517 1028 563 979 c 0
 582 959 602 939 625 918 c 1
 710 963 799 1017 844 1099 c 0
 858 1124 865 1150 865 1178 c 0
 865 1287 777 1340 669 1340 c 0
EndSplineSet
EndChar

StartChar: quotesingle
Encoding: 8 39 8
Width: 554
Flags: W
HStem: 989 462<212 342>
VStem: 176 166<1267.02 1451> 212 130<989 1172.98>
LayerCount: 2
Fore
SplineSet
212 989 m 1xa0
 176 1451 l 1
 342 1451 l 1xc0
 342 989 l 1
 212 989 l 1xa0
EndSplineSet
EndChar

StartChar: parenleft
Encoding: 9 40 9
Width: 628
Flags: W
HStem: 1431 20G<409 578>
VStem: 153 163<264.254 933.542>
LayerCount: 2
Fore
SplineSet
578 1451 m 1
 429 1214 316 944 316 590 c 0
 316 336 386 121 470 -60 c 0
 502 -130 539 -196 579 -259 c 1
 433 -259 l 1
 319 -84 222 120 175 359 c 0
 160 434 153 510 153 587 c 0
 153 855 225 1066 316 1250 c 0
 350 1318 388 1385 430 1451 c 1
 578 1451 l 1
EndSplineSet
EndChar

StartChar: parenright
Encoding: 10 41 10
Width: 628
Flags: W
HStem: 1431 20G<52 256>
VStem: 315 164<243.152 928.433>
LayerCount: 2
Fore
SplineSet
56 -259 m 1
 167 -82 256 124 296 368 c 0
 309 445 315 524 315 604 c 0
 315 854 246 1065 164 1245 c 0
 131 1316 94 1385 52 1451 c 1
 199 1451 l 1
 313 1272 412 1069 458 826 c 0
 472 751 479 675 479 598 c 0
 479 234 349 -32 205 -259 c 1
 56 -259 l 1
EndSplineSet
EndChar

StartChar: asterisk
Encoding: 11 42 11
Width: 1065
Flags: W
HStem: 1431 20G<439 581>
VStem: 439 142<1157.38 1451>
LayerCount: 2
Fore
SplineSet
581 1153 m 1
 816 1274 l 1
 880 1149 l 1
 617 1061 l 1
 818 810 l 1
 692 737 l 1
 534 1003 l 1
 381 745 l 1
 257 820 l 1
 448 1058 l 1
 175 1136 l 1
 196 1271 l 1
 480 1148 l 1
 467 1248 452 1351 439 1451 c 1
 581 1451 l 1
 581 1153 l 1
EndSplineSet
EndChar

StartChar: plus
Encoding: 12 43 12
Width: 1458
Flags: W
HStem: 485 139<198 646 797 1246> 1027 20G<649 797>
VStem: 646 149<62 485 624 1047>
LayerCount: 2
Fore
SplineSet
649 624 m 1
 649 1047 l 1
 797 1047 l 1
 797 624 l 1
 1246 624 l 1
 1246 485 l 1
 795 485 l 1
 795 62 l 1
 646 62 l 1
 646 485 l 1
 198 485 l 1
 198 624 l 1
 649 624 l 1
EndSplineSet
EndChar

StartChar: comma
Encoding: 13 44 13
Width: 540
Flags: W
HStem: -256 463<185 209>
VStem: 78 294
LayerCount: 2
Fore
SplineSet
185 207 m 1
 372 207 l 1
 209 -256 l 1
 78 -256 l 1
 185 207 l 1
EndSplineSet
EndChar

StartChar: hyphen
Encoding: 14 45 14
Width: 728
Flags: W
HStem: 489 137<79 651>
VStem: 79 572<489 626>
LayerCount: 2
Fore
SplineSet
79 489 m 1
 79 626 l 1
 651 626 l 1
 651 489 l 1
 79 489 l 1
EndSplineSet
EndChar

StartChar: period
Encoding: 15 46 15
Width: 540
Flags: W
HStem: -11 210<159 376>
VStem: 159 217<-11 199>
LayerCount: 2
Fore
SplineSet
376 -11 m 1
 159 -11 l 1
 159 199 l 1
 376 199 l 1
 376 -11 l 1
EndSplineSet
EndChar

StartChar: slash
Encoding: 16 47 16
Width: 717
Flags: W
HStem: 1431 20G<582.353 757>
LayerCount: 2
Fore
SplineSet
-47 -215 m 1
 590 1451 l 1
 757 1451 l 1
 116 -215 l 1
 -47 -215 l 1
EndSplineSet
EndChar

StartChar: zero
Encoding: 17 48 17
Width: 1219
Flags: W
HStem: -23 142<456.232 751.833> 1312 141<460.304 760.289>
VStem: 104 178<350.859 1056.7> 931 184<369.188 1081.71>
LayerCount: 2
Fore
SplineSet
607 1453 m 0
 1012 1453 1115 1117 1115 710 c 0
 1115 325 986 -23 607 -23 c 0
 219 -23 104 319 104 710 c 0
 104 1103 222 1453 607 1453 c 0
607 1312 m 0
 341 1312 282 984 282 710 c 0
 282 423 323 119 607 119 c 0
 868 119 931 440 931 710 c 0
 931 996 890 1312 607 1312 c 0
EndSplineSet
EndChar

StartChar: one
Encoding: 18 49 18
Width: 1190
Flags: HW
HStem: 0 143<333 552 724 941> 1418 20G<601.778 724>
VStem: 552 172<143 1245>
LayerCount: 2
Fore
SplineSet
253 1259 m 1
 369 1312 491 1385 559 1436 c 1
 724 1438 l 1
 724 0 l 1
 552 0 l 1
 552 1270 l 1
 486 1220 400 1172 294 1128 c 1
 253 1259 l 1
EndSplineSet
EndChar

StartChar: two
Encoding: 19 50 19
Width: 1190
Flags: HW
HStem: 0 145<305 1035> 1307 141<393.029 748.208>
VStem: 857 175<921.094 1210.03>
LayerCount: 2
Fore
SplineSet
573 1307 m 0
 395 1307 285 1204 230 1078 c 1
 133 1175 l 1
 195 1342 357 1448 584 1448 c 0
 832.312378105 1448 1032 1323.48061133 1032 1078 c 0
 1032 805.91382101 772.716896836 589.59325291 623 442 c 0
 521 341 407 239 305 145 c 1
 1035 145 l 1
 1035 0 l 1
 99 0 l 1
 98 147 l 1
 255 297 432 456 583 616 c 0
 687.126634524 725.785690748 857 884.578017723 857 1071 c 0
 857 1228 731 1307 573 1307 c 0
EndSplineSet
EndChar

StartChar: three
Encoding: 20 51 20
Width: 1190
Flags: HW
HStem: -23 142<335.135 727.814> 672 141<385 697.945> 1306 143<355.656 731.418>
VStem: 826 184<927.456 1220.21> 871 178<250.49 546.815>
LayerCount: 2
Fore
SplineSet
462 672 m 2xe8
 385 670 l 1
 383 813 l 1
 446 813 l 2
 664 813 826 869 826 1085 c 0
 826 1243 703 1306 544 1306 c 0
 384 1306 283 1236 219 1128 c 1
 121 1217 l 1
 181 1364 345 1449 550 1449 c 0
 793.079769205 1449 1010 1327.31924377 1010 1086 c 0xf0
 1010 889 876 790 721 746 c 1
 900.4567186 709.606679445 1049 604.362782162 1049 391 c 0
 1049 115.231800249 796.415341236 -23 519 -23 c 0
 313.71718226 -23 144.795712905 55.3750856565 108 223 c 1
 191 324 l 1
 239 199 357 119 528 119 c 0
 713.803108327 119 871 210.224928468 871 394 c 0
 871 615 685.924804688 677.81640625 462 672 c 2xe8
EndSplineSet
EndChar

StartChar: four
Encoding: 21 52 21
Width: 1189
Flags: W
HStem: 0 21G<726 898> 351 132<196 726 898 1112>
VStem: 726 172<0 351 483 1292>
LayerCount: 2
Fore
SplineSet
726 0 m 1
 726 351 l 1
 25 351 l 1
 25 475 l 1
 690 1420 l 1
 898 1420 l 1
 898 483 l 1
 1112 483 l 1
 1112 351 l 1
 898 351 l 1
 898 0 l 1
 726 0 l 1
726 483 m 1
 726 1292 l 1
 638 1146 l 1
 196 483 l 1
 726 483 l 1
EndSplineSet
EndChar

StartChar: five
Encoding: 22 53 22
Width: 1190
Flags: W
HStem: -23 142<365.013 731.997> 758 147<436.17 755.396> 1280 145<366 994>
VStem: 203 149<839 1280> 891 177<282.463 626.521>
LayerCount: 2
Fore
SplineSet
352 839 m 1
 421 879 496 905 599 905 c 0
 824 905 972 793 1036 630 c 0
 1058 574 1068 514 1068 449 c 0
 1068 220 936 78 766 14 c 0
 702 -10 629 -23 548 -23 c 0
 357 -23 223 55 147 173 c 1
 228 289 l 1
 295 190 396 119 546 119 c 0
 713 119 823 202 868 324 c 0
 883 364 891 407 891 452 c 0
 891 595 823 690 721 734 c 0
 684 750 641 758 593 758 c 0
 495 758 419 718 379 658 c 1
 203 652 l 1
 203 1425 l 1
 994 1425 l 1
 994 1280 l 1
 366 1280 l 1
 352 839 l 1
EndSplineSet
EndChar

StartChar: six
Encoding: 23 54 23
Width: 1190
Flags: W
HStem: -23 142<453.08 778.907> 778 136<439.148 785.978> 1312 141<501.971 859.267>
VStem: 92 198<350.146 841.834> 92 180<724 1005.67> 920 178<270.34 639.507>
LayerCount: 2
Fore
SplineSet
272 724 m 1xec
 338 845 467 914 645 914 c 0
 865 914 1005 807 1066 645 c 0
 1087 588 1098 525 1098 454 c 0
 1098 228 977 80 813 14 c 0
 753 -10 686 -23 612 -23 c 0
 326 -23 182 160 124 393 c 0
 103 479 92 574 92 678 c 0xf4
 92 1011 208 1271 422 1392 c 0
 494 1433 579 1453 674 1453 c 0
 823 1453 937 1402 999 1313 c 1
 944 1201 l 1
 881 1267 798 1312 675 1312 c 0
 468 1312 366 1165 314 1008 c 0
 287 927 272 829 272 724 c 1xec
620 778 m 0
 475 778 367 709 316 612 c 0
 298 578 290 542 290 501 c 0
 290 333 359 208 472 150 c 0
 513 129 560 119 614 119 c 0
 765 119 858 205 898 318 c 0
 912 358 920 401 920 448 c 256
 920 601 859 704 752 752 c 0
 714 769 671 778 620 778 c 0
EndSplineSet
EndChar

StartChar: seven
Encoding: 24 55 24
Width: 1189
Flags: W
HStem: 0 21G<293 487.819> 1275 145<95 873>
LayerCount: 2
Fore
SplineSet
1065 1420 m 1
 1065 1329 l 1
 479 0 l 1
 293 0 l 1
 873 1275 l 1
 95 1275 l 1
 95 1420 l 1
 1065 1420 l 1
EndSplineSet
EndChar

StartChar: eight
Encoding: 25 56 25
Width: 1190
Flags: W
HStem: -23 142<391.977 779.207> 1317 136<408.147 768.192>
VStem: 93 177<229.707 522.585> 128 172<943.59 1217.58> 874 172<943.59 1219.33> 904 177<235.082 524.222>
LayerCount: 2
Fore
SplineSet
409 747 m 1xe4
 251 796 128 898 128 1091 c 0
 128 1280 259 1384 408 1428 c 0
 464 1444 523 1453 587 1453 c 256
 788 1453 940 1376 1010 1244 c 0
 1034 1199 1046 1148 1046 1091 c 0xd8
 1046 898 923 796 765 747 c 1
 944 694 1081 580 1081 367 c 0
 1081 230 1015 138 932 78 c 0
 848 17 726 -23 587 -23 c 0
 374 -23 211 62 134 200 c 0
 107 248 93 304 93 367 c 0
 93 580 230 694 409 747 c 1xe4
587 119 m 256
 729 119 833 172 880 268 c 0
 896 300 904 337 904 380 c 0
 904 567 744 641 587 673 c 1
 457 647 345 592 294 489 c 0
 278 457 270 421 270 380 c 0xe4
 270 201 407 119 587 119 c 256
587 820 m 1
 744 849 874 917 874 1086 c 0
 874 1242 743 1317 587 1317 c 256
 462 1317 367 1268 323 1185 c 0
 308 1156 300 1123 300 1086 c 0xd8
 300 917 430 849 587 820 c 1
EndSplineSet
EndChar

StartChar: nine
Encoding: 26 57 26
Width: 1190
Flags: W
HStem: -20 21G<755.333 906.548> 529 144<413.305 802.357> 1312 141<423.864 792.662>
VStem: 108 176<804.505 1168.49> 950 163<817.874 1159.9>
LayerCount: 2
Fore
SplineSet
583 529 m 4
 305 529 108 707 108 984 c 256
 108 1274 310 1453 601 1453 c 0
 922 1453 1113 1270 1113 986 c 0
 1113 934 1106 878 1093 820 c 2
 902 -20 l 1
 748 1 l 1
 917 662 l 1
 917 662 828 529 583 529 c 4
284 989 m 0
 284 792 393 673 592 673 c 0
 780 673 950 754 950 981 c 0
 950 1218 791 1312 593 1312 c 0
 402 1312 284 1179 284 989 c 0
EndSplineSet
EndChar

StartChar: colon
Encoding: 27 58 27
Width: 540
Flags: W
HStem: -11 210<159 376> 841 210<159 376>
VStem: 159 217<-11 199 841 1051>
LayerCount: 2
Fore
SplineSet
376 841 m 1
 159 841 l 1
 159 1051 l 1
 376 1051 l 1
 376 841 l 1
376 -11 m 1
 159 -11 l 1
 159 199 l 1
 376 199 l 1
 376 -11 l 1
EndSplineSet
EndChar

StartChar: semicolon
Encoding: 28 59 28
Width: 540
Flags: W
HStem: 841 210<206 376>
VStem: 206 170<986.946 1051>
LayerCount: 2
Fore
SplineSet
206 207 m 1
 394 207 l 1
 231 -256 l 1
 100 -256 l 1
 206 207 l 1
376 841 m 1
 159 841 l 1
 206 1051 l 1
 376 1051 l 1
 376 841 l 1
EndSplineSet
EndChar

StartChar: less
Encoding: 29 60 29
Width: 1458
Flags: W
LayerCount: 2
Fore
SplineSet
438 552 m 1
 1223 200 l 1
 1223 48 l 1
 219 508 l 1
 219 595 l 1
 1227 1067 l 1
 1227 914 l 1
 438 552 l 1
EndSplineSet
EndChar

StartChar: equal
Encoding: 30 61 30
Width: 1458
Flags: W
HStem: 283 137<198 1247> 689 138<197 1246>
LayerCount: 2
Fore
SplineSet
1247 420 m 1
 1247 283 l 1
 198 283 l 1
 198 420 l 1
 1247 420 l 1
1246 827 m 1
 1246 689 l 1
 197 689 l 1
 197 827 l 1
 1246 827 l 1
EndSplineSet
EndChar

StartChar: greater
Encoding: 31 62 31
Width: 1458
Flags: W
LayerCount: 2
Fore
SplineSet
1004 555 m 1
 220 926 l 1
 220 1078 l 1
 1225 594 l 1
 1225 505 l 1
 215 58 l 1
 215 212 l 1
 1004 555 l 1
EndSplineSet
EndChar

StartChar: question
Encoding: 32 63 32
Width: 1032
Flags: W
HStem: -11 210<329 546> 1336 142<232.676 637.923>
VStem: 329 217<-11 199> 346 157<375.835 627.342> 730 169<988.875 1251.6>
LayerCount: 2
Fore
SplineSet
183 1413 m 1xd8
 263 1452 358 1478 464 1478 c 0
 656 1478 800 1411 866 1284 c 0
 888 1241 899 1191 899 1133 c 0
 899 1034 845 962 796 902 c 0
 714 802 601 717 532 607 c 0
 512 576 503 544 503 513 c 0
 503 482 506 444 511 418 c 2
 520 368 l 1
 356 368 l 1
 351 416 346 480 346 530 c 0
 346 622 398 687 446 739 c 0
 530 830 640 904 702 1014 c 0
 721 1048 730 1085 730 1125 c 0
 730 1278 597 1336 444 1336 c 0
 340 1336 254 1307 183 1267 c 1
 183 1413 l 1xd8
546 -11 m 1xe8
 329 -11 l 1
 329 199 l 1
 546 199 l 1
 546 -11 l 1xe8
EndSplineSet
EndChar

StartChar: at
Encoding: 33 64 33
Width: 1895
Flags: W
HStem: -109 121<708.009 1248.29> 225 125<1232.83 1432.75> 257 128<711.566 963.562> 1007 131<840.859 1098.84> 1357 119<713.891 1229.59>
VStem: 130 151<425.415 920.58> 498 157<440.648 782.638> 1141 85<436 821> 1607 153<573.211 1011.36>
LayerCount: 2
Fore
SplineSet
978 1138 m 0xbf80
 1084 1138 1168 1091 1207 1022 c 1
 1225 1107 l 1
 1371 1107 l 1
 1314 857 l 2
 1288 743 1266 652 1250 584 c 0
 1234 516 1226 467 1226 436 c 0
 1226 380 1249 350 1309 350 c 0
 1405 350 1474 421 1517 486 c 0
 1568 562 1607 673 1607 796 c 0
 1607 976 1529 1111 1428 1200 c 0
 1321 1294 1162 1357 966 1357 c 0
 753 1357 587 1270 476 1158 c 0
 367 1048 281 884 281 677 c 0
 281 470 361 310 471 202 c 0
 585 90 753 12 972 12 c 0
 1190 12 1362 86 1486 192 c 1
 1566 122 l 1
 1438 -17 1230 -109 967 -109 c 0
 709 -109 504 -14 366 116 c 0
 232 243 130 432 130 679 c 0
 130 935 239 1119 374 1246 c 0
 513 1377 709 1476 971 1476 c 0
 1213 1476 1398 1396 1531 1283 c 0
 1658 1176 1760 1018 1760 791 c 0
 1760 622 1694 484 1612 390 c 0
 1540 307 1427 225 1288 225 c 0xdf80
 1165 225 1090 276 1071 384 c 1
 1013 313 930 257 814 257 c 0
 664 257 570 347 525 457 c 0
 507 501 498 552 498 610 c 0
 498 763 568 890 646 976 c 0
 721 1058 835 1138 978 1138 c 0xbf80
1141 821 m 0
 1141 936 1096 1007 980 1007 c 0
 872 1007 794 935 746 866 c 0
 697 795 655 693 655 582 c 0
 655 465 715 385 831 385 c 0xbf80
 934 385 1006 454 1052 522 c 0
 1102 596 1141 702 1141 821 c 0
EndSplineSet
EndChar

StartChar: A
Encoding: 34 65 34
Width: 1425
Flags: W
HStem: 0 21G<13 206.859 1207.79 1407> 397 148<410 994> 1436 20G<608.703 810.31>
LayerCount: 2
Fore
SplineSet
199 0 m 1
 13 0 l 1
 617 1456 l 1
 802 1456 l 1
 1407 0 l 1
 1216 0 l 1
 1053 397 l 1
 355 397 l 1
 199 0 l 1
410 545 m 1
 994 545 l 1
 760 1150 l 1
 742 1192 721 1252 707 1298 c 1
 692 1252 670 1191 655 1149 c 1
 410 545 l 1
EndSplineSet
EndChar

StartChar: B
Encoding: 35 66 35
Width: 1352
Flags: W
HStem: 0 148<374 897.296> 680 148<374 823.474> 1308 148<374 852.424>
VStem: 202 172<148 680 828 1308> 963 181<942.174 1213.3> 1031 182<263.172 561.762>
LayerCount: 2
Fore
SplineSet
202 0 m 1xf4
 202 1456 l 1
 492 1456 l 2
 813 1456 1144 1424 1144 1105 c 0xf8
 1144 923 1022 809 879 769 c 1
 1065 737 1213 619 1213 403 c 0
 1213 137 1001 0 729 0 c 2
 202 0 l 1xf4
963 1077 m 0
 963 1279 785 1308 582 1308 c 2
 374 1308 l 1
 374 828 l 1
 570 828 l 2
 769 828 963 879 963 1077 c 0
1031 406 m 0xf4
 1031 641 838 680 600 680 c 2
 374 680 l 1
 374 148 l 1
 657 148 l 2
 867 148 1031 210 1031 406 c 0xf4
EndSplineSet
EndChar

StartChar: C
Encoding: 36 67 36
Width: 1429
Flags: W
HStem: -23 147<598.521 1072.24> 1335 148<623.955 1055.13>
VStem: 116 183<449.819 984.786>
LayerCount: 2
Fore
SplineSet
819 124 m 0
 1000 124 1140 180 1241 268 c 1
 1299 127 l 1
 1175 27 1006 -23 793 -23 c 0
 361 -23 116 283 116 713 c 0
 116 1155 380 1483 822 1483 c 0
 1022 1483 1151 1429 1263 1329 c 1
 1198 1208 l 1
 1097 1285 978 1335 841 1335 c 0
 487 1335 299 1063 299 712 c 0
 299 369 475 124 819 124 c 0
EndSplineSet
EndChar

StartChar: D
Encoding: 37 68 37
Width: 1546
Flags: W
HStem: 0 148<365 899.802> 1308 148<365 879.622>
VStem: 193 172<148 1308> 1248 182<474.493 981.625>
LayerCount: 2
Fore
SplineSet
508 1456 m 2
 1056 1456 1430 1273 1430 724 c 0
 1430 241 1095 0 610 0 c 2
 193 0 l 1
 193 1456 l 1
 508 1456 l 2
365 148 m 1
 626 148 l 2
 1011 148 1248 341 1248 721 c 0
 1248 1170 979 1308 529 1308 c 2
 365 1308 l 1
 365 148 l 1
EndSplineSet
EndChar

StartChar: E
Encoding: 38 69 38
Width: 1218
Flags: W
HStem: 0 148<377 1102> 672 148<377 1034> 1308 148<377 1072>
VStem: 205 172<148 672 820 1308>
LayerCount: 2
Fore
SplineSet
1102 0 m 1
 205 0 l 1
 205 1456 l 1
 1072 1456 l 1
 1072 1308 l 1
 377 1308 l 1
 377 820 l 1
 1034 820 l 1
 1034 672 l 1
 377 672 l 1
 377 148 l 1
 1102 148 l 1
 1102 0 l 1
EndSplineSet
EndChar

StartChar: F
Encoding: 39 70 39
Width: 1137
Flags: W
HStem: 0 21G<197 369> 667 148<369 1006> 1308 148<369 1040>
VStem: 197 172<0 667 815 1308>
LayerCount: 2
Fore
SplineSet
369 0 m 1
 197 0 l 1
 197 1456 l 1
 1040 1456 l 1
 1040 1308 l 1
 369 1308 l 1
 369 815 l 1
 1006 815 l 1
 1006 667 l 1
 369 667 l 1
 369 0 l 1
EndSplineSet
EndChar

StartChar: G
Encoding: 40 71 40
Width: 1530
Flags: W
HStem: -23 148<613.13 1174.94> 608 149<819 1180> 1335 148<634.13 1108.76>
VStem: 116 178<448.569 969.486> 1180 172<155.968 608>
LayerCount: 2
Fore
SplineSet
1352 81 m 1
 1207 13 1048 -23 849 -23 c 0
 384 -23 116 239 116 701 c 0
 116 1165 396 1483 860 1483 c 0
 1071 1483 1211 1431 1327 1315 c 1
 1255 1198 l 1
 1163 1286 1028 1335 856 1335 c 0
 499 1335 294 1069 294 714 c 0
 294 344 492 125 863 125 c 4
 984 125 1090 135 1180 171 c 1
 1180 608 l 1
 819 608 l 1
 819 757 l 1
 1352 757 l 1
 1352 81 l 1
EndSplineSet
EndChar

StartChar: H
Encoding: 41 72 41
Width: 1549
Flags: W
HStem: 0 21G<202 374 1176 1347> 674 148<374 1176> 1436 20G<202 374 1176 1347>
VStem: 202 172<0 674 822 1456> 1176 171<0 674 822 1456>
LayerCount: 2
Fore
SplineSet
374 0 m 1
 202 0 l 1
 202 1456 l 1
 374 1456 l 1
 374 822 l 1
 1176 822 l 1
 1176 1456 l 1
 1347 1456 l 1
 1347 0 l 1
 1176 0 l 1
 1176 674 l 1
 374 674 l 1
 374 0 l 1
EndSplineSet
EndChar

StartChar: I
Encoding: 42 73 42
Width: 591
Flags: W
HStem: 0 21G<210 382> 1436 20G<210 382>
VStem: 210 172<0 1456>
LayerCount: 2
Fore
SplineSet
382 0 m 1
 210 0 l 1
 210 1456 l 1
 382 1456 l 1
 382 0 l 1
EndSplineSet
EndChar

StartChar: J
Encoding: 43 74 43
Width: 939
Flags: W
HStem: -23 152<186.501 473.133> 1308 148<244 583 755 1027>
VStem: 583 172<264.537 1308>
LayerCount: 2
Fore
SplineSet
123 212 m 1
 200 158 277 129 346 129 c 0
 481 129 583 241 583 488 c 2
 583 1308 l 1
 244 1308 l 1
 243 1456 l 1
 1027 1456 l 1
 1027 1308 l 1
 755 1308 l 1
 755 499 l 2
 755 192 632 -23 331 -23 c 0
 218 -23 131 16 71 76 c 1
 123 212 l 1
EndSplineSet
EndChar

StartChar: K
Encoding: 44 75 44
Width: 1286
Flags: W
HStem: 0 21G<202 374 1033.3 1288> 1436 20G<202 374 998.485 1234>
VStem: 202 172<0 725 796 1456>
LayerCount: 2
Fore
SplineSet
374 0 m 1
 202 0 l 1
 202 1456 l 1
 374 1456 l 1
 374 796 l 1
 1018 1456 l 1
 1234 1456 l 1
 545 778 l 1
 1288 0 l 1
 1052 0 l 1
 374 725 l 1
 374 0 l 1
EndSplineSet
EndChar

StartChar: L
Encoding: 45 76 45
Width: 1120
Flags: W
HStem: 0 148<374 1073> 1436 20G<202 374>
VStem: 202 172<148 1456>
LayerCount: 2
Fore
SplineSet
1073 0 m 5
 202 0 l 5
 202 1456 l 1
 374 1456 l 1
 374 148 l 5
 1073 148 l 5
 1073 0 l 5
EndSplineSet
EndChar

StartChar: M
Encoding: 46 77 46
Width: 2000
Flags: W
HStem: 0 21G<202 372 926.903 1071.12 1630 1798> 1436 20G<202 449.135 1554.78 1798>
VStem: 202 170<0 1268> 1630 168<0 1251>
LayerCount: 2
Fore
SplineSet
202 0 m 1
 202 1456 l 1
 440 1456 l 1
 915 416 l 1
 1001 212 l 1
 1086 419 l 1
 1564 1456 l 1
 1798 1456 l 1
 1798 0 l 1
 1630 0 l 1
 1630 1251 l 1
 1562 1096 l 1
 1062 0 l 1
 936 0 l 1
 432 1108 l 1
 372 1268 l 1
 372 0 l 1
 202 0 l 1
EndSplineSet
EndChar

StartChar: N
Encoding: 47 78 47
Width: 1606
Flags: W
HStem: 0 21G<202 374 1182.52 1404> 1436 20G<202 421.411 1233 1404>
VStem: 202 172<0 1237> 1233 171<215 1456>
LayerCount: 2
Fore
SplineSet
202 0 m 5
 202 1456 l 5
 408 1456 l 5
 1155 342 l 5
 1233 215 l 5
 1233 1456 l 5
 1404 1456 l 5
 1404 0 l 5
 1196 0 l 5
 446 1113 l 5
 374 1237 l 5
 374 0 l 5
 202 0 l 5
EndSplineSet
EndChar

StartChar: O
Encoding: 48 79 48
Width: 1662
Flags: W
HStem: -23 148<615.835 1058.27> 1335 148<617.514 1057.18>
VStem: 116 184<466.514 991.429> 1358 188<450.382 1002.33>
LayerCount: 2
Fore
SplineSet
1546 730 m 0
 1546 276 1287 -23 834 -23 c 0
 375 -23 116 271 116 730 c 0
 116 1184 381 1483 834 1483 c 0
 1288 1483 1546 1185 1546 730 c 0
300 730 m 0
 300 381 486 125 834 125 c 0
 1191 125 1358 374 1358 730 c 0
 1358 1082 1185 1335 834 1335 c 0
 489 1335 300 1074 300 730 c 0
EndSplineSet
EndChar

StartChar: P
Encoding: 49 80 49
Width: 1273
Flags: W
HStem: 0 21G<202 374> 587 149<374 866.147> 1308 148<374 867.816>
VStem: 202 172<0 587 736 1308> 1015 184<864.84 1179.14>
LayerCount: 2
Fore
SplineSet
563 1456 m 6
 918 1456 1199 1375 1199 1020 c 0
 1199 705 932 587 616 587 c 2
 374 587 l 1
 374 0 l 1
 202 0 l 1
 202 1456 l 1
 563 1456 l 6
1015 1018 m 0
 1015 1258 827 1308 587 1308 c 2
 374 1308 l 1
 374 736 l 1
 635 736 l 2
 845 736 1015 810 1015 1018 c 0
EndSplineSet
EndChar

StartChar: Q
Encoding: 50 81 50
Width: 1661
Flags: W
HStem: -18 155<604.004 940.513> 1334 149<600.2 1052.46>
VStem: 116 179<474.442 995.296> 1352 188<462.051 1005.47>
LayerCount: 2
Fore
SplineSet
295 736 m 0
 295 389 481 137 827 137 c 0
 1182 137 1352 382 1352 736 c 0
 1352 1087 1178 1334 827 1334 c 0
 481 1334 295 1081 295 736 c 0
1096 20 m 1
 1159 -110 1247 -213 1345 -304 c 1
 1233 -422 l 1
 1116 -305 1007 -172 931 -9 c 1
 900 -15 864 -18 826 -18 c 0
 373 -18 116 282 116 736 c 0
 116 1183 389 1483 834 1483 c 0
 1282 1483 1540 1183 1540 736 c 0
 1540 374 1359 124 1096 20 c 1
EndSplineSet
EndChar

StartChar: R
Encoding: 51 82 51
Width: 1374
Flags: W
HStem: 0 21G<202 374 1088.7 1284> 652 147<374 821.915> 1308 148<374 894.195>
VStem: 202 172<0 652 799 1308> 1014 182<915.083 1202.58>
LayerCount: 2
Fore
SplineSet
374 652 m 1
 374 0 l 1
 202 0 l 1
 202 1456 l 1
 558 1456 l 2
 893 1456 1196 1410 1196 1074 c 0
 1196 867 1052 758 886 715 c 1
 1022 670 1067 546 1121 410 c 2
 1284 0 l 1
 1096 0 l 1
 943 419 l 2
 890 564 840 652 644 652 c 2
 374 652 l 1
1014 1058 m 0
 1014 1261 854 1308 651 1308 c 2
 374 1308 l 1
 374 799 l 1
 640 799 l 2
 837 799 1014 859 1014 1058 c 0
EndSplineSet
EndChar

StartChar: S
Encoding: 52 83 52
Width: 1244
Flags: W
HStem: -23 148<355.952 818.423> 1335 148<449.835 894.396>
VStem: 141 183<979.929 1228.26> 950 184<233.319 490.064>
LayerCount: 2
Fore
SplineSet
998 1217 m 1
 928 1294 812 1335 667 1335 c 0
 498 1335 324 1272 324 1105 c 0
 324 920 550 856 686 801 c 0
 882 722 1134 636 1134 364 c 0
 1134 76 858 -23 572 -23 c 0
 375 -23 218 44 137 161 c 1
 215 271 l 1
 291 179 426 125 591 125 c 0
 774 125 950 185 950 365 c 0
 950 567 697 623 546 682 c 0
 362 754 141 843 141 1095 c 0
 141 1360 400 1483 666 1483 c 0
 849 1483 1004 1437 1081 1329 c 1
 998 1217 l 1
EndSplineSet
EndChar

StartChar: T
Encoding: 53 84 53
Width: 1174
Flags: W
HStem: 1 21G<501 673> 1308 148<32 501 673 1145>
VStem: 501 172<1 1308>
LayerCount: 2
Fore
SplineSet
501 1 m 5
 501 1308 l 1
 32 1308 l 1
 32 1456 l 1
 1145 1456 l 1
 1145 1308 l 1
 673 1308 l 1
 673 1 l 5
 501 1 l 5
EndSplineSet
EndChar

StartChar: U
Encoding: 54 85 54
Width: 1532
Flags: W
HStem: -23 148<549.732 966.223> 1436 20G<191 363 1165 1337>
VStem: 191 172<321.639 1456> 1165 171<331.214 1456>
LayerCount: 2
Fore
SplineSet
756 -23 m 0
 377 -23 191 166 191 541 c 2
 191 1456 l 1
 363 1456 l 1
 363 546 l 2
 363 275 493 125 763 125 c 0
 1017 125 1165 285 1165 539 c 2
 1165 1456 l 1
 1337 1456 l 1
 1336 551 l 1
 1333 178 1133 -23 756 -23 c 0
EndSplineSet
EndChar

StartChar: V
Encoding: 55 86 55
Width: 1336
Flags: W
HStem: 1 21G<562.289 766.766> 1436 20G<9 208.363 1137.57 1324>
LayerCount: 2
Fore
SplineSet
201 1456 m 1
 624 307 l 1
 670 166 l 1
 718 306 l 1
 1145 1456 l 1
 1324 1456 l 1
 759 1 l 1
 570 1 l 1
 9 1456 l 1
 201 1456 l 1
EndSplineSet
EndChar

StartChar: W
Encoding: 56 87 56
Width: 2103
Flags: W
HStem: 1 21G<438.186 663.34 1438.7 1662.81> 1436 20G<21 212.601 960.46 1154.46 1894.49 2080>
LayerCount: 2
Fore
SplineSet
1052 1247 m 1
 657 1 l 1
 444 1 l 1
 21 1456 l 1
 207 1456 l 1
 517 349 l 1
 555 189 l 1
 605 349 l 1
 967 1456 l 1
 1148 1456 l 1
 1507 345 l 1
 1553 190 l 1
 1595 349 l 1
 1900 1456 l 1
 2080 1456 l 1
 1657 0 l 1
 1445 0 l 1
 1052 1247 l 1
EndSplineSet
EndChar

StartChar: X
Encoding: 57 88 57
Width: 1304
Flags: W
HStem: 0 21G<11 228.683 1058.48 1285> 1436 20G<47 276.256 1065.15 1275>
LayerCount: 2
Fore
SplineSet
215 0 m 1
 11 0 l 1
 548 741 l 1
 47 1456 l 1
 263 1456 l 1
 662 854 l 1
 1079 1456 l 1
 1275 1456 l 1
 764 742 l 1
 1285 0 l 1
 1072 0 l 1
 646 630 l 1
 215 0 l 1
EndSplineSet
EndChar

StartChar: Y
Encoding: 58 89 58
Width: 1266
Flags: W
HStem: 0 21G<543 715> 1436 20G<10 212.824 1055.07 1258>
VStem: 543 172<0 582>
LayerCount: 2
Fore
SplineSet
543 0 m 1
 543 582 l 1
 10 1456 l 1
 201 1456 l 1
 632 727 l 1
 1067 1456 l 1
 1258 1456 l 1
 715 585 l 1
 715 0 l 1
 543 0 l 1
EndSplineSet
EndChar

StartChar: Z
Encoding: 59 90 59
Width: 1222
Flags: W
HStem: 0 148<286 1146> 1308 148<90 922>
LayerCount: 2
Fore
SplineSet
1146 0 m 1
 58 0 l 1
 58 92 l 1
 922 1308 l 1
 90 1308 l 1
 90 1456 l 1
 1154 1456 l 1
 1154 1368 l 1
 286 148 l 1
 1146 148 l 1
 1146 0 l 1
EndSplineSet
EndChar

StartChar: bracketleft
Encoding: 60 91 60
Width: 628
Flags: W
HStem: -259 122<354 548> 1329 122<354 547>
VStem: 191 357<-259 -137 1329 1451> 191 163<-137 1329>
LayerCount: 2
Fore
SplineSet
548 -259 m 1xe0
 191 -259 l 1
 191 1451 l 1xe0
 547 1451 l 1
 547 1329 l 1
 354 1329 l 1
 354 -137 l 1xd0
 548 -137 l 1
 548 -259 l 1xe0
EndSplineSet
EndChar

StartChar: backslash
Encoding: 61 92 61
Width: 706
Flags: W
HStem: 1431 20G<-70 106.726>
LayerCount: 2
Fore
SplineSet
617 -119 m 1
 -70 1451 l 1
 98 1451 l 1
 783 -119 l 1
 617 -119 l 1
EndSplineSet
EndChar

StartChar: bracketright
Encoding: 62 93 62
Width: 628
Flags: W
HStem: -259 122<87 278> 1329 122<88 278>
VStem: 87 355<-259 -137 1329 1451> 278 164<-137 1329>
LayerCount: 2
Fore
SplineSet
78 1451 m 1xd0
 442 1451 l 1
 442 -259 l 1
 87 -259 l 1
 87 -137 l 1xe0
 278 -137 l 1
 278 1329 l 1
 88 1329 l 1
 78 1451 l 1xd0
EndSplineSet
EndChar

StartChar: asciicircum
Encoding: 63 94 63
Width: 1457
Flags: W
LayerCount: 2
Fore
SplineSet
184 550 m 1
 665 1432 l 1
 766 1432 l 1
 1255 550 l 1
 1100 550 l 1
 714 1260 l 1
 340 550 l 1
 184 550 l 1
EndSplineSet
EndChar

StartChar: underscore
Encoding: 64 95 64
Width: 998
Flags: W
HStem: -273 128<-5 998>
LayerCount: 2
Fore
SplineSet
998 -273 m 1
 -5 -273 l 1
 -5 -145 l 1
 998 -145 l 1
 998 -273 l 1
EndSplineSet
EndChar

StartChar: grave
Encoding: 65 96 65
Width: 593
Flags: W
HStem: 1172 320
VStem: 1 461
LayerCount: 2
Fore
SplineSet
1 1492 m 1
 215 1492 l 1
 462 1172 l 1
 333 1172 l 1
 1 1492 l 1
EndSplineSet
EndChar

StartChar: a
Encoding: 66 97 66
Width: 1230
Flags: W
HStem: -23 140<408.479 711.499> -4 143<1056.96 1116> 909 142<497.07 857.225>
VStem: 120 167<246.751 670.967> 861 164<244.583 881.385>
LayerCount: 2
Back
SplineSet
678 1051 m 0
 1007.85449219 1051 1198 839.598632812 1198 513 c 0
 1198 192.1796875 995.5234375 -23 674 -23 c 0
 345.87890625 -23 148 186.337890625 148 511 c 256
 148 835.619140625 352.71875 1051 678 1051 c 0
1024 511 m 0
 1024 744.513671875 908.50390625 910 674 910 c 0
 444.002929688 910 321 737.517578125 321 509 c 256
 321 279.2421875 447.743164062 117 678 117 c 0
 908.780273438 117 1024 281.625976562 1024 511 c 0
EndSplineSet
Fore
SplineSet
287 448 m 4xb8
 287 223 404 117 547 117 c 4
 705 117 807 226 861 293 c 13
 860 864 l 5
 806 891 727 909 671 909 c 4
 415 909 287 691 287 448 c 4xb8
522 -23 m 4
 294 -23 120 161 120 438 c 4
 120 760 305 1051 674 1051 c 4
 798 1051 921 1027 1025 965 c 5
 1025 286 l 6
 1025 170 1098 139 1150 139 c 5
 1116 -4 l 5x78
 1029 -4 921 36 894 156 c 5
 779 23 644 -23 522 -23 c 4
EndSplineSet
EndChar

StartChar: b
Encoding: 67 98 67
Width: 1231
Flags: W
HStem: -23 140<336.546 794.735> 909 142<519.489 849.529> 1505 20G<168 333>
VStem: 168 165<146.159 712.627 851 1525> 966 167<314.257 778.319>
LayerCount: 2
Fore
SplineSet
628 -23 m 0
 385 -23 168 71 168 71 c 1
 168 1525 l 1
 333 1525 l 1
 333 851 l 1
 413 1000 573 1051 701 1051 c 0
 995 1051 1133 849 1133 545 c 0
 1133 215 945 -23 628 -23 c 0
333 515 m 2
 333 156 l 17
 333 156 477 117 631 117 c 0
 864 117 966 319 966 550 c 0
 966 756 900 909 696 909 c 0
 474 909 333 736 333 515 c 2
EndSplineSet
EndChar

StartChar: c
Encoding: 68 99 68
Width: 1048
Flags: HW
HStem: -23 140<438.701 822.821> 909 142<443.13 808.721>
VStem: 94 173<300.168 721.663>
LayerCount: 2
Fore
SplineSet
976 87 m 1
 849 11 731 -23 617 -23 c 4
 305 -23 94 193 94 503 c 0
 94 824 289 1051 610 1051 c 0
 769 1051 892 1002 960 912 c 1
 883 801 l 1
 826 872 738 909 619 909 c 0
 389 909 267 737 267 508 c 0
 267 258 420 117 624 117 c 4
 722 117 825 146 940 225 c 1
 976 87 l 1
EndSplineSet
EndChar

StartChar: d
Encoding: 69 100 69
Width: 1233
Flags: W
HStem: -24 142<417.986 757.838> 911 140<426.409 782.813> 1506 20G<910 1074>
VStem: 94 176<277.721 741.71> 910 164<289.593 803.116 933 1526>
LayerCount: 2
Fore
SplineSet
923 177 m 5
 863 52 726 -24 565 -24 c 4
 255 -24 94 194 94 501 c 4
 94 810 256 1051 565 1051 c 4
 709 1051 805 1034 910 933 c 5
 910 1526 l 5
 1074 1526 l 5
 1074 390 l 6
 1074 162 1118 76 1163 10 c 5
 1001 -13 l 21
 963 32 927 111 923 177 c 5
270 507 m 4
 270 283 358 118 583 118 c 4
 822 118 910 296 910 534 c 261
 911 744 l 5
 877 790 806 911 589 911 c 4
 363 911 270 732 270 507 c 4
EndSplineSet
EndChar

StartChar: e
Encoding: 70 101 70
Width: 1073
Flags: HW
HStem: -19 142<431.944 787.078> 913 143<437.776 731.812>
VStem: 94 180<389.882 735.087> 783 163<647.067 862.48>
LayerCount: 2
Back
SplineSet
636 109 m 0
 792.504420174 109 904.210252435 169.407248828 988 252 c 1
 1039 115 l 1
 932.701033715 24.9585226766 813.410993301 -23 626 -23 c 0
 302.046062548 -23 115 187.297106182 115 510 c 0
 115 825.022158736 304.942435584 1051 620 1051 c 0
 928.490660886 1051 1079 850.78013216 1079 544 c 0
 1079 528.877148818 1078.19540165 506.344819829 1077 492 c 1
 290 492 l 1
 292.498224618 262.163335105 406.135373189 109 636 109 c 0
906 609 m 1
 893.403555213 785.350227024 806.198219781 917 619 917 c 0
 424.630262859 917 321.277632624 778.943428365 297 609 c 1
 906 609 l 1
EndSplineSet
Fore
SplineSet
596 123 m 0
 735 123 856 187 930 276 c 1
 1013 170 l 1
 895 46 758 -19 589 -19 c 0
 325 -19 94 176 94 516 c 0
 94 805 269 1056 592 1056 c 0
 808 1056 946 918 946 751 c 0
 946 506 683.5 386 288 380 c 5
 333 201 462 123 596 123 c 0
593 913 m 0
 392 913 274 735 274 539 c 0
 274 523 275 507 277 490 c 1
 564 522 783 594 783 755 c 0
 783 846 714 913 593 913 c 0
EndSplineSet
EndChar

StartChar: f
Encoding: 71 102 71
Width: 689
Flags: W
HStem: -379 121<89.5119 155.264> 919 107<51 252 417 665> 1379 123<469.156 700.156>
VStem: 252 165<-155.889 919 1026 1326.41>
LayerCount: 2
Fore
SplineSet
252 1140 m 2
 252 1389 368 1502 541 1502 c 0
 595 1502 655 1491 719 1469 c 1
 695 1362 l 1
 658 1371 620 1379 584 1379 c 0
 494 1379 417 1334 417 1163 c 2
 417 1026 l 1
 665 1026 l 1
 665 919 l 1
 417 919 l 1
 418 59 l 2
 418 -191 331 -348 92 -379 c 1
 71 -258 l 1
 191 -229 253 -124 253 36 c 2
 252 919 l 1
 51 919 l 1
 51 1026 l 1
 252 1026 l 1
 252 1140 l 2
EndSplineSet
EndChar

StartChar: g
Encoding: 72 103 72
Width: 1168
Flags: W
HStem: -464 137<280.952 700.824> -23 140<396.584 694.171> 910 142<485.981 851.975>
VStem: 106 162<252.432 660.295> 855 165<-158.947 143 240.862 892.703>
LayerCount: 2
Back
SplineSet
913 293 m 5
 911.8203125 875.599609375 l 5
 857.771484375 902.893554688 778.627929688 921.331054688 722.825195312 921.331054688 c 4
 457.333007812 921.331054688 324.862304688 670.206054688 324.862304688 421.962890625 c 4
 324.862304688 211.21484375 462.124023438 121.494140625 596.4140625 121.494140625 c 4
 754.278320312 121.494140625 838.561523438 210.865234375 913 293 c 5
1076.984375 147 m 6
 1076.984375 -219.935546875 920.807183899 -422 550 -422 c 4
 402.993330928 -422 285.951624005 -391.364331861 182 -340 c 5
 201 -187 l 5
 291.603287941 -243.196976065 403.93774476 -282 538 -282 c 4
 770.549408582 -282 912 -183.210597311 912 49 c 6
 912 149.053548323 l 5
 802.221455866 32.2927370571 678.664292919 -18.4208984375 564.012695312 -18.4208984375 c 4
 347.370117188 -18.4208984375 162.525390625 154.654296875 162.525390625 413.365234375 c 4
 162.525390625 708.341796875 344.571289062 1051.36328125 725.3046875 1051.36328125 c 4
 849.100585938 1051.36328125 973.282226562 1020.046875 1076.984375 958 c 5
 1076.984375 205.422851562 l 6
 1076.984375 204.631031903 1076.9800811 203.823029413 1076.984375 203 c 6
 1076.984375 147 l 6
EndSplineSet
Fore
SplineSet
856 287 m 1
 855 876 l 1
 801 903 722 910 666 910 c 0
 401 910 268 679 268 431 c 0
 268 220 405 117 539 117 c 0
 697 117 782 205 856 287 c 1
1020 104 m 2
 1020 -248 846 -464 521 -464 c 0
 423 -464 310 -445 185 -403 c 1
 204 -250 l 1
 304 -300 410 -327 507 -327 c 0
 699 -327 855 -223 855 6 c 2
 855 143 l 1
 745 26 622 -23 507 -23 c 0
 290 -23 106 163 106 422 c 0
 106 717 287 1052 668 1052 c 0
 792 1052 916 1020 1020 958 c 1
 1020 104 l 2
EndSplineSet
EndChar

StartChar: h
Encoding: 73 104 73
Width: 1237
Flags: W
HStem: -24 126<1051.6 1089.1> 0 21G<154 319> 911 140<462.133 788.944> 1506 20G<154 318>
VStem: 154 165<0 782.678 884 1526> 870 165<118.234 825.475>
LayerCount: 2
Fore
SplineSet
870 265 m 6xbc
 872 572 l 6
 872 576 872 581 872 585 c 0
 872 790 839 911 628 911 c 4
 474 911 319 799 319 652 c 2
 319 0 l 1
 154 0 l 1x7c
 154 1526 l 1
 318 1526 l 1
 318 884 l 1
 391 988 488 1051 656 1051 c 4
 949 1051 1037 867 1037 577 c 0
 1037 574 1037 570 1037 567 c 6
 1035 270 l 6
 1035 265 1035 260 1035 255 c 0
 1035 142 1046 117 1121 102 c 5
 1085 -24 l 5
 897 -2 870 62 870 248 c 0
 870 254 870 259 870 265 c 6xbc
EndSplineSet
EndChar

StartChar: i
Encoding: 74 105 74
Width: 583
Flags: W
HStem: -5 126<363.575 552.821> 1006 20G<167 332> 1245 199<160.676 342.324>
VStem: 144 215<1263 1426> 167 165<149.222 1026>
LayerCount: 2
Fore
SplineSet
167 300 m 2xe8
 167 1026 l 1
 332 1026 l 1
 332 305 l 2
 332 165 381 121 449 121 c 0
 479 121 513 130 548 143 c 1
 571 25 l 1
 521 5 471 -5 424 -5 c 0
 282 -5 167 89 167 300 c 2xe8
144 1345 m 0xf0
 144 1411 198 1444 252 1444 c 0
 306 1444 359 1410 359 1344 c 0
 359 1278 305 1245 251 1245 c 0
 197 1245 144 1279 144 1345 c 0xf0
EndSplineSet
EndChar

StartChar: j
Encoding: 75 106 75
Width: 533
Flags: W
HStem: -429 146<-71 133.552> 1006 20G<205 370> 1307 155<204 357>
VStem: 205 165<-201.104 1026 1307 1462>
LayerCount: 2
Fore
SplineSet
357 1462 m 1
 357 1307 l 1
 204 1307 l 1
 204 1462 l 1
 357 1462 l 1
12 -283 m 0
 168 -283 205 -146 205 31 c 2
 205 1026 l 1
 370 1026 l 1
 370 73 l 2
 370 -150 326 -339 170 -407 c 0
 136 -422 97 -429 51 -429 c 0
 7 -429 -33 -425 -71 -416 c 1
 -72 -273 l 1
 -42 -278 -18 -283 12 -283 c 0
EndSplineSet
EndChar

StartChar: k
Encoding: 76 107 76
Width: 1094
Flags: HW
HStem: 0 21G<154 328.5> 1006 20G<781.741 974> 1506 20G<154 319>
VStem: 154 165<308 1526>
LayerCount: 2
Back
SplineSet
293 0 m 5
 168 0 l 5
 168 1526 l 5
 333 1526 l 5
 333 308 l 5
 809 1026 l 5
 988 1026 l 5
 686 580 l 5
 883 270 l 6
 954 158 1022 112 1076 75 c 5
 976 -29 l 5
 914 3 840 55 755 189 c 6
 594 445 l 5
 494 297 392 149 293 0 c 5
EndSplineSet
Fore
SplineSet
279 0 m 1
 154 0 l 1
 154 1526 l 1
 319 1526 l 1
 319 308 l 1
 795 1026 l 1
 974 1026 l 1
 672 580 l 1
 869 270 l 2
 940 158 1018 88 1091 79 c 1
 1022 -45 l 1
 918 -26 826 55 741 189 c 2
 580 445 l 1
 279 0 l 1
EndSplineSet
EndChar

StartChar: l
Encoding: 77 108 77
Width: 686
Flags: W
HStem: -8 125<367.614 621.29> 1506 20G<168 333>
VStem: 168 165<151.022 1526>
LayerCount: 2
Back
SplineSet
-141.6796875 108.590820312 m 0
 107.751953125 108.590820312 170 335.176757812 170 581 c 1
 168.8203125 840.599609375 l 1
 90.470703125 886.005859375 20.193359375 922 -129 922 c 0
 -356.645507812 922 -452 747.885742188 -452 523 c 0
 -452 287.185546875 -371.52734375 108.590820312 -141.6796875 108.590820312 c 0
333.984375 292.422851562 m 6
 333.984375 173.825195312 339.791015625 112.98828125 417.033203125 112.98828125 c 4
 444.090820312 112.98828125 480.859375 122.376953125 525 139 c 5
 558 25 l 5
 473.102539062 -4.5810546875 437.677734375 -11.8193359375 387.1015625 -11.8193359375 c 4
 245.778320312 -11.8193359375 190.392578125 83.7353515625 180.0703125 163.482421875 c 5
 110 19.060546875 -21.4990234375 -23.490234375 -162.596679688 -23.490234375 c 0
 -463.342773438 -23.490234375 -614 206.150390625 -614 524 c 0
 -614 829.9140625 -443.905273438 1051 -136 1051 c 0
 128.258789062 1051 274.484375 936.599609375 333.984375 901 c 1
 333.984375 292.422851562 l 6
EndSplineSet
Fore
SplineSet
168 300 m 6
 168 1526 l 5
 333 1526 l 5
 333 292 l 6
 333 165 385 117 472 117 c 4
 510 117 565 130 615 146 c 5
 640 25 l 5
 568 3 504 -8 448 -8 c 4
 262 -8 168 110 168 300 c 6
EndSplineSet
EndChar

StartChar: m
Encoding: 78 109 78
Width: 1952
Flags: W
HStem: -21 125<1748.25 1867> 0 21G<180 345 889.895 1052> 911 140<486.061 810.546 1163.51 1471.86> 1006 20G<154 324.099>
VStem: 154 167<933.468 1026> 180 165<0 779.062> 890 162<0 722.746> 1558 164<129.653 813.555>
LayerCount: 2
Back
SplineSet
1878 105 m 5xac
 1866 -8 l 5
 1827.98535156 -15.0869140625 1784.91894531 -18.9931640625 1754.61914062 -18.9931640625 c 4
 1617.76367188 -18.9931640625 1558 60.7021484375 1558 287 c 6
 1558 471.458007812 l 6
 1558 752.82421875 1539.83886719 911 1321 911 c 4xac
 1167 911 1019 799 1019 582 c 6
 1019 0 l 5
 854 0 l 5
 854 699 l 6
 854 844 839 947 820 1026 c 5
 979 1026 l 5x5c
 1001 884 l 5
 1074 988 1188 1051 1356 1051 c 4
 1653.35449219 1051 1718.94433594 856.358398438 1721.65234375 453.5078125 c 6
 1722.50292969 327 l 6
 1723.94726562 103.609375 1760.82519531 107.885742188 1878 105 c 5xac
EndSplineSet
Fore
SplineSet
890 0 m 1x6b
 887 572 l 1
 887 785 866 911 651 911 c 0
 497 911 345 799 345 652 c 2
 345 0 l 1
 180 0 l 1
 180 699 l 2x67
 180 784 160 977 154 1026 c 1
 321 1026 l 1x5b
 343 884 l 1
 416 988 511 1051 679 1051 c 0
 846 1051 944 991 997 885 c 1
 1070 988 1181 1051 1348 1051 c 0
 1644 1051 1722 847 1722 567 c 2
 1722 407 l 2
 1722 161 1731 104 1846 104 c 0
 1857 104 1868 105 1881 106 c 1
 1867 -10 l 1
 1829 -17 1795 -21 1766 -21 c 0xab
 1576 -21 1558 125 1558 364 c 1
 1559 572 l 1
 1559 785 1518 911 1317 911 c 0
 1178 911 1112 839 1043 725 c 1
 1050 677 1052 624 1052 567 c 2
 1052 0 l 1
 890 0 l 1x6b
EndSplineSet
EndChar

StartChar: n
Encoding: 79 110 79
Width: 1263
Flags: W
HStem: -25 126<1078.59 1156> 0 21G<180 345> 911 140<478.678 799.944> 1006 20G<154 324.099>
VStem: 154 167<933.468 1026> 180 165<0 784.872> 883 165<130.048 824.875>
LayerCount: 2
Back
SplineSet
1204 105 m 5xbc
 1192 -8 l 5
 1153.98535156 -15.0869140625 1110.91894531 -18.9931640625 1080.61914062 -18.9931640625 c 4xbc
 943.763671875 -18.9931640625 884 60.7021484375 884 287 c 6
 884 471.457871807 l 6
 884 752.82421875 865.839202678 911 647 911 c 4
 493 911 345 799 345 582 c 6
 345 0 l 5
 180 0 l 5x7c
 180 699 l 5
 178 1525.921875 l 5
 345 1525.921875 l 5
 346 884 l 5
 419 988 514 1051 682 1051 c 4
 979.354812987 1051 1044.94433594 856.358398438 1047.65239138 453.507522583 c 6
 1048.50292969 327 l 6
 1049.94726562 103.609375 1086.82519531 107.885742188 1204 105 c 5xbc
EndSplineSet
Fore
SplineSet
881 254 m 2xaa
 883 572 l 2
 883 576 883 581 883 585 c 0
 883 790 850 911 639 911 c 0
 485 911 345 799 345 652 c 2
 345 0 l 1
 180 0 l 1
 180 699 l 2x66
 180 784 160 977 154 1026 c 1
 321 1026 l 1x5a
 343 884 l 1
 416 988 499 1051 667 1051 c 0
 960 1051 1048 867 1048 576 c 0
 1048 573 1048 570 1048 567 c 2
 1046 259 l 6
 1045 108 1114 117 1192 101 c 1
 1156 -25 l 1
 955 -22 881 53 881 248 c 0
 881 250 881 252 881 254 c 2xaa
EndSplineSet
EndChar

StartChar: o
Encoding: 80 111 80
Width: 1238
Flags: W
HStem: -23 140<444.471 799.884> 910 141<442.693 796.114>
VStem: 94 173<301.267 720.158> 970 174<293.711 727.337>
LayerCount: 2
Fore
SplineSet
624 1051 m 4
 954 1051 1144 840 1144 513 c 4
 1144 192 942 -23 620 -23 c 4
 292 -23 94 186 94 511 c 260
 94 836 299 1051 624 1051 c 4
970 511 m 4
 970 745 855 910 620 910 c 4
 390 910 267 738 267 509 c 260
 267 279 394 117 624 117 c 4
 855 117 970 282 970 511 c 4
EndSplineSet
EndChar

StartChar: p
Encoding: 81 112 81
Width: 1233
Flags: W
HStem: -427 21G<159 323> -23 140<450.187 806.591> 910 142<477.288 815.014> 1006 20G<140 309.192>
VStem: 159 164<-427 95 224.884 738.407> 963 176<286.29 750.279>
LayerCount: 2
Fore
SplineSet
323 880 m 1xdc
 397 979 507 1052 668 1052 c 0xec
 978 1052 1139 834 1139 527 c 0
 1139 218 977 -23 668 -23 c 0
 524 -23 428 -6 323 95 c 1
 323 -427 l 1
 159 -427 l 1
 159 758 l 2
 159 846 145 979 140 1026 c 1
 307 1026 l 1
 323 880 l 1xdc
963 521 m 0
 963 745 875 910 650 910 c 0
 411 910 323 732 323 494 c 257
 322 284 l 1
 356 238 427 117 644 117 c 0
 870 117 963 296 963 521 c 0
EndSplineSet
EndChar

StartChar: q
Encoding: 82 113 82
Width: 1300
Flags: W
HStem: -23 132<415.345 752.273> 917 134<427.635 762.067> 1006 20G<917.219 1085>
VStem: 93 173<279.426 735.544> 913 165<-295 148 290.758 756.258 898 1026>
LayerCount: 2
Fore
SplineSet
1085 1026 m 1xb8
 1081 962 1078 876 1078 813 c 2
 1077 -295 l 1
 1107 -235 1299 -78 1299 -78 c 1
 1461 -144 l 1
 1374 -220 1127 -426 1047 -521 c 5
 913 -476 l 1
 913 148 l 1
 834 43 717 -23 545 -23 c 0
 241 -23 93 203 93 506 c 0
 93 815 257 1051 567 1051 c 0xd8
 725 1051 842 989 913 898 c 1
 918 1026 l 1
 1085 1026 l 1xb8
913 543 m 0
 913 759 808 917 593 917 c 0
 364 917 266 736 266 507 c 0
 266 284 359 109 582 109 c 0
 826 109 913 301 913 543 c 0
EndSplineSet
EndChar

StartChar: r
Encoding: 83 114 83
Width: 795
Flags: W
HStem: 0 21G<182 347> 907 143<467.661 727.891> 1006 20G<156 324.355>
VStem: 182 165<0 770.733>
LayerCount: 2
Fore
SplineSet
731 883 m 1xd0
 703 898 660 907 616 907 c 0xd0
 431 907 347 755 347 568 c 2
 347 0 l 1
 182 0 l 1
 182 779 l 2
 182 861 162 980 156 1026 c 5
 321 1026 l 5xb0
 347 871 l 1
 395 968 487 1050 621 1050 c 0
 660 1050 696 1046 729 1038 c 1
 731 883 l 1xd0
EndSplineSet
EndChar

StartChar: s
Encoding: 84 115 84
Width: 1001
Flags: W
HStem: -26 138<299.401 688.154> 917 139<332.058 729.991>
VStem: 114 171<685.842 870.842> 739 163<161.434 363.88>
LayerCount: 2
Back
SplineSet
742 272 m 4
 742 404 558 431 451 463 c 4
 286 512 117 570 117 771 c 4
 117 966 301 1051 493 1051 c 4
 636 1051 756 1029 837 966 c 5
 790 844 l 5
 716 893 616 917 502 917 c 4
 398 917 288 878 288 774 c 4
 288 653 458 625 553 596 c 4
 713 547 905 492 905 284 c 4
 905 74.4955759916 729.188664548 -27.3404937184 520.65715457 -27.3404937184 c 4
 388.43395831 -27.3404937184 243.055862443 13.6019307253 121 94 c 5
 164 220 l 5
 239.404825675 163.456694577 399.448906725 107.125961569 532.047313442 107.125961569 c 4
 647.411031102 107.125961569 742 149.764987725 742 272 c 4
EndSplineSet
Fore
SplineSet
739 272 m 0
 739 404 555 431 448 463 c 0
 283 512 114 570 114 771 c 0
 114 967 294 1056 494 1056 c 0
 612 1056 736 1025 834 966 c 1
 787 844 l 1
 732 880 606 917 493 917 c 0
 382 917 285 881 285 774 c 0
 285 653 455 625 550 596 c 0
 710 547 902 492 902 284 c 0
 902 52 739 -26 552 -26 c 0
 396 -26 220 25 114 90 c 5
 161 227 l 1
 236 170 396 112 529 112 c 0
 644 112 739 150 739 272 c 0
EndSplineSet
EndChar

StartChar: t
Encoding: 85 116 85
Width: 793
Flags: W
HStem: -8 121<452.967 730.974>
VStem: 233 165<165.622 300>
LayerCount: 2
Back
SplineSet
243 300 m 6
 243 1492 l 1
 408 1492 l 1
 407.984375 292.422851562 l 6
 407.984375 173.825195312 436.791015625 117.98828125 514.033203125 117.98828125 c 4
 541.090820312 117.98828125 596.859375 125.376953125 641 142 c 5
 675 25 l 5
 590.102539062 -4.5810546875 534.677734375 -11.8193359375 484.1015625 -11.8193359375 c 4
 288.91015625 -11.8193359375 243 156.026367188 243 300 c 6
EndSplineSet
Fore
SplineSet
233 300 m 2
 233 110 375 -8 565 -8 c 0
 622 -8 683 3 746 25 c 1
 727 142 l 1
 680 124 630 113 584 113 c 0
 483 113 398 163 398 292 c 2
 398 919 l 1
 654 919 l 1
 654 1026 l 1
 398 1026 l 1
 398 1345 l 1
 238 1298 l 1
 238 1026 l 1
 30 1026 l 1
 30 919 l 1
 233 919 l 1
 233 300 l 2
EndSplineSet
EndChar

StartChar: u
Encoding: 86 117 86
Width: 1215
Flags: W
HStem: -24 142<421.669 705.862> -4 143<1052.37 1111> 1006 20G<159 324 857 1022>
VStem: 159 165<222.718 1026> 857 165<270.242 1026>
LayerCount: 2
Fore
SplineSet
324 399 m 2xb8
 324 203 434 118 555 118 c 0xb8
 699 118 857 239 857 435 c 2
 857 1026 l 1
 1022 1026 l 1
 1022 286 l 2
 1022 170 1094 139 1146 139 c 1
 1111 -4 l 1x78
 1014 -4 916 44 889 155 c 1
 793 37 658 -24 530 -24 c 0
 336 -24 159 114 159 399 c 2
 159 1026 l 1
 324 1026 l 1
 324 399 l 2xb8
EndSplineSet
EndChar

StartChar: v
Encoding: 87 118 87
Width: 1063
Flags: W
HStem: 0 21G<434.637 619.441> 1006 20G<14 204.145 859 1044>
LayerCount: 2
Fore
SplineSet
14 1026 m 1
 196 1026 l 1
 477 336 l 2
 496 290 519 217 535 163 c 1
 556 232 l 2
 565 264 579 309 591 336 c 1
 867 1026 l 1
 1044 1026 l 1
 611 0 l 1
 443 0 l 1
 14 1026 l 1
EndSplineSet
EndChar

StartChar: w
Encoding: 88 119 88
Width: 1695
Flags: W
HStem: 0 21G<382.885 559.22 1126.24 1300.17> 1006 20G<25 207.712 767.933 947.703 1485.5 1661>
LayerCount: 2
Fore
SplineSet
201 1026 m 1
 450 284 l 2
 460 255 469 217 479 186 c 1
 489 214 498 249 510 276 c 1
 775 1026 l 1
 941 1026 l 1
 1189 286 l 2
 1199 258 1208 219 1218 189 c 1
 1231 219 1240 255 1252 287 c 1
 1492 1026 l 1
 1661 1026 l 1
 1293 0 l 1
 1133 0 l 1
 852 831 l 1
 552 0 l 1
 390 0 l 1
 25 1026 l 1
 201 1026 l 1
EndSplineSet
EndChar

StartChar: x
Encoding: 89 120 89
Width: 1115
Flags: W
HStem: 0 21G<62 266.402 837.694 1053> 1006 20G<81 297.786 846.777 1040>
LayerCount: 2
Fore
SplineSet
462 514 m 1
 81 1026 l 1
 284 1026 l 1
 568 614 l 1
 861 1026 l 1
 1040 1026 l 1
 662 518 l 1
 1053 0 l 1
 852 0 l 1
 553 418 l 1
 252 0 l 1
 62 0 l 1
 462 514 l 1
EndSplineSet
EndChar

StartChar: y
Encoding: 90 121 90
Width: 1217
Flags: W
HStem: -464 137<303.952 723.437> -23 140<414.24 745.67> 1006 20G<157 322 878 1043>
VStem: 157 165<214.185 1026> 878 165<-162.046 135 251.57 1026>
LayerCount: 2
Fore
SplineSet
322 399 m 2
 322 211 393 117 578 117 c 0
 770 117 878 246 878 436 c 2
 878 1026 l 1
 1043 1026 l 1
 1043 98 l 2
 1043 -250 867 -464 544 -464 c 0
 446 -464 333 -445 208 -403 c 1
 227 -250 l 1
 327 -300 433 -327 530 -327 c 0
 722 -327 878 -223 878 6 c 2
 878 135 l 1
 801 30 688 -23 540 -23 c 0
 279 -23 157 140 157 399 c 2
 157 1026 l 1
 322 1026 l 1
 322 399 l 2
EndSplineSet
EndChar

StartChar: z
Encoding: 91 122 91
Width: 1005
Flags: W
HStem: 0 134<310 925> 891 135<111 685>
LayerCount: 2
Fore
SplineSet
85 89 m 1
 685 891 l 1
 111 891 l 1
 111 1026 l 1
 908 1026 l 1
 908 939 l 1
 310 134 l 1
 925 134 l 1
 925 0 l 1
 85 0 l 1
 85 89 l 1
EndSplineSet
EndChar

StartChar: braceleft
Encoding: 92 123 92
Width: 627
Flags: W
HStem: -259 126<444.427 566> 534 122<86 188.992> 1325 126<447.85 566>
VStem: 243 160<-92.1757 479.438 713.432 1280.98>
LayerCount: 2
Fore
SplineSet
405 325 m 0
 405 261 403 172 403 107 c 0
 403 -2 411 -95 488 -122 c 0
 509 -129 535 -133 566 -133 c 1
 566 -259 l 1
 380 -251 243 -183 243 11 c 2
 244 274 l 2
 244 422 222 520 86 534 c 1
 85 656 l 1
 205 667 247 759 247 890 c 1
 246 932 245 974 245 1016 c 0
 245 1058 244 1101 243 1143 c 1
 243 1356 350 1451 566 1451 c 1
 566 1325 l 1
 454 1322 409 1273 409 1157 c 2
 408 868 l 2
 408 737 351 640 268 595 c 1
 360 552 405 455 405 325 c 0
EndSplineSet
EndChar

StartChar: bar
Encoding: 93 124 93
Width: 500
Flags: W
VStem: 168 157<-491 1545>
LayerCount: 2
Fore
SplineSet
168 -491 m 1
 168 1545 l 1
 325 1545 l 1
 325 -491 l 1
 168 -491 l 1
EndSplineSet
EndChar

StartChar: braceright
Encoding: 94 125 94
Width: 627
Flags: W
HStem: -259 126<66 187.573> 534 122<443.008 546> 1325 126<66 183.763>
VStem: 229 160<-92.1757 483.5 713.432 1280.98>
LayerCount: 2
Fore
SplineSet
385 890 m 1
 385 759 427 667 547 656 c 1
 546 534 l 1
 445 524 396 466 390 364 c 0
 388 334 388 305 388 274 c 2
 389 11 l 2
 389 -183 252 -251 66 -259 c 1
 66 -133 l 1
 166 -133 206 -96 221 -10 c 0
 226 21 229 60 229 107 c 0
 229 172 227 260 227 325 c 0
 227 455 272 552 364 595 c 1
 279 639 224 736 224 868 c 2
 223 1157 l 2
 223 1273 178 1322 66 1325 c 1
 66 1451 l 1
 281 1451 389 1356 389 1143 c 1
 388 1101 387 1058 387 1016 c 0
 387 974 386 932 385 890 c 1
EndSplineSet
EndChar

StartChar: asciitilde
Encoding: 95 126 95
Width: 1458
Flags: W
HStem: 410 135<823.181 1061.05> 571 134<380.618 647.933>
VStem: 189 115<433.144 486.13> 1131 125<620.427 688.473>
LayerCount: 2
Fore
SplineSet
491 705 m 0
 552 705 609 683 658 664 c 0
 739 632 819 587 900 557 c 0
 922 549 941 545 957 545 c 0
 1057 545 1112 641 1131 723 c 1
 1256 684 l 1
 1228 566 1167 473 1065 430 c 0
 1032 416 996 410 956 410 c 0
 904 410 852 433 810 452 c 0
 731 487 650 532 564 559 c 0
 538 567 515 571 494 571 c 0
 384 571 325 475 304 385 c 1
 189 440 l 1
 213 553 280 641 377 683 c 0
 411 698 449 705 491 705 c 0
EndSplineSet
EndChar

StartChar: dieresis
Encoding: 107 168 97
Width: 743
Flags: W
HStem: 1183 163<121 285 453 617>
VStem: 121 164<1183 1346> 453 164<1183 1346>
LayerCount: 2
Fore
SplineSet
285 1183 m 1
 121 1183 l 1
 121 1346 l 1
 285 1346 l 1
 285 1183 l 1
617 1183 m 1
 453 1183 l 1
 453 1346 l 1
 617 1346 l 1
 617 1183 l 1
EndSplineSet
EndChar

StartChar: ring
Encoding: 283 730 99
Width: 605
Flags: W
HStem: 1149 86<208.659 387.415> 1445 85<211.362 388.97>
VStem: 90 99<1253.83 1423.45> 410 100<1257.16 1424.25>
LayerCount: 2
Fore
SplineSet
299 1235 m 0
 359 1235 410 1280 410 1340 c 0
 410 1402 361 1445 299 1445 c 0
 239 1445 189 1400 189 1340 c 0
 189 1276 234 1235 299 1235 c 0
90 1339 m 256
 90 1431 150 1490 218 1516 c 0
 243 1526 271 1530 300 1530 c 256
 395 1530 464 1480 494 1414 c 0
 505 1391 510 1366 510 1340 c 0
 510 1249 448 1190 381 1164 c 0
 356 1154 329 1149 301 1149 c 0
 206 1149 137 1199 106 1264 c 0
 95 1287 90 1312 90 1339 c 256
EndSplineSet
EndChar

StartChar: cedilla
Encoding: 121 184 101
Width: 529
Flags: W
HStem: -396 83<58.439 317.063> -168 78<259 315.828>
VStem: 325 143<-302.853 -177.521>
LayerCount: 2
Fore
SplineSet
227 -396 m 0
 167 -396 106 -385 52 -374 c 1
 60 -289 l 1
 110 -301 157 -313 211 -313 c 0
 277 -313 325 -297 325 -241 c 0
 325 -182 276 -168 216 -168 c 0
 207 -168 190 -170 179 -171 c 2
 147 -173 l 1
 180 17 l 1
 277 17 l 1
 259 -90 l 1
 268 -90 l 1
 372 -95 468 -131 468 -239 c 0
 468 -359 348 -396 227 -396 c 0
EndSplineSet
EndChar

StartChar: acute
Encoding: 118 180 103
Width: 607
Flags: W
HStem: 1172 320
VStem: 175 438
LayerCount: 2
Fore
SplineSet
401 1492 m 1
 613 1492 l 1
 305 1172 l 1
 175 1172 l 1
 401 1492 l 1
EndSplineSet
EndChar

StartChar: tilde
Encoding: 285 732 105
Width: 663
Flags: W
HStem: 1220 125<322.63 535.779> 1288 125<130.693 361.223>
VStem: 14 105<1203 1275.21> 550 108<1358.53 1435>
LayerCount: 2
Fore
SplineSet
463 1345 m 0xb0
 516 1345 543 1384 550 1435 c 1
 658 1435 l 1
 645 1322 587 1220 463 1220 c 0xb0
 367 1220 305 1288 210 1288 c 0
 156 1288 126 1260 119 1203 c 1
 14 1203 l 1
 24 1319 89 1413 213 1413 c 0x70
 289 1413 346 1377 404 1356 c 0
 424 1349 444 1345 463 1345 c 0xb0
EndSplineSet
EndChar

StartChar: circumflex
Encoding: 279 710 111
Width: 699
Flags: W
HStem: 1170 324
VStem: 35 614
LayerCount: 2
Fore
SplineSet
35 1170 m 1
 263 1494 l 1
 420 1494 l 1
 649 1170 l 1
 517 1170 l 1
 339 1386 l 1
 161 1170 l 1
 35 1170 l 1
EndSplineSet
EndChar

StartChar: dotlessi
Encoding: 216 305 121
Width: 503
Flags: W
HStem: 0 21G<167 333> 1006 20G<167 333>
VStem: 167 166<0 1026>
LayerCount: 2
Fore
SplineSet
333 0 m 1
 167 0 l 1
 167 1026 l 1
 333 1026 l 1
 333 0 l 1
EndSplineSet
EndChar

StartChar: dagger
Encoding: 302 8224 135
Width: 1022
Flags: W
HStem: 934 132<107 433 575 919> 1431 20G<433 575>
VStem: 433 128<113 934 1066 1451>
LayerCount: 2
Fore
SplineSet
433 934 m 1
 107 934 l 1
 107 1066 l 1
 433 1066 l 1
 433 1451 l 1
 575 1451 l 1
 575 1066 l 1
 919 1066 l 1
 919 934 l 1
 561 934 l 1
 561 113 l 1
 433 113 l 1
 433 934 l 1
EndSplineSet
EndChar

StartChar: degree
Encoding: 114 176 136
Width: 844
Flags: W
HStem: 855 116<285.851 541.496> 1328 116<285.419 541.583>
VStem: 95 125<1035.41 1262.46> 608 125<1036.55 1264.75>
LayerCount: 2
Fore
SplineSet
414 1328 m 256
 327 1328 265 1282 236 1222 c 0
 226 1200 220 1176 220 1151 c 256
 220 1064 275 1010 338 985 c 0
 361 976 387 971 414 971 c 0
 502 971 565 1019 593 1080 c 0
 603 1102 608 1126 608 1151 c 256
 608 1237 551 1290 488 1314 c 0
 464 1323 440 1328 414 1328 c 256
414 855 m 0
 271 855 167 937 120 1036 c 0
 103 1072 95 1109 95 1150 c 256
 95 1289 189 1380 291 1421 c 0
 330 1436 371 1444 414 1444 c 256
 558 1444 661 1363 708 1264 c 0
 725 1228 733 1191 733 1150 c 256
 733 1010 638 919 536 878 c 0
 497 862 457 855 414 855 c 0
EndSplineSet
EndChar

StartChar: cent
Encoding: 101 162 137
Width: 1189
Flags: HW
HStem: -23 140<438.701 822.821> 909 142<443.13 808.721>
VStem: 94 173<300.168 721.663> 546 131<-235 1281>
LayerCount: 2
Fore
SplineSet
976 87 m 1
 849 11 723 -23 609 -23 c 0
 315 -23 94 193 94 503 c 0
 94 824 289 1051 610 1051 c 0
 769 1051 892 1002 960 912 c 1
 883 801 l 1
 826 872 738 909 619 909 c 0
 389 909 267 737 267 508 c 0
 267 258 412 117 616 117 c 0
 714 117 825 146 940 225 c 1
 976 87 l 1
666 -235 m 1
 553 -235 l 1
 553 1281 l 1
 666 1281 l 1
 666 -235 l 1
EndSplineSet
EndChar

StartChar: sterling
Encoding: 102 163 138
Width: 1189
Flags: W
HStem: 0 141<370 1081> 690 142<114 296 468 798> 1307 141<583.455 961.291>
VStem: 297 171<262.42 690 832 1186.73>
LayerCount: 2
Fore
SplineSet
296 832 m 1
 295 842 294 851 294 861 c 0
 294 1211 380 1448 733 1448 c 0
 876 1448 985 1418 1062 1357 c 1
 1010 1237 l 1
 940 1280 847 1307 736 1307 c 0
 528 1307 463 1156 463 947 c 1
 466 832 l 1
 798 832 l 1
 798 690 l 1
 468 690 l 1
 468 674 468 658 468 641 c 0
 468 476 466 305 411 194 c 0
 400 171 386 154 370 141 c 1
 1081 141 l 1
 1081 0 l 1
 115 0 l 1
 114 138 l 1
 218 199 297 272 297 440 c 2
 297 690 l 1
 114 690 l 1
 114 832 l 1
 296 832 l 1
EndSplineSet
EndChar

StartChar: section
Encoding: 106 167 139
Width: 1097
Flags: W
HStem: -48 137<256.474 652.627> 1356 137<434.655 817.326>
VStem: 185 177<641.571 848.163> 221 172<1119.58 1311.15> 715 173<147.487 334.525> 733 178<623.85 816.507>
LayerCount: 2
Fore
SplineSet
374 975 m 1xe8
 289 1027 221 1090 221 1217 c 0
 221 1416 403 1493 603 1493 c 0
 696 1493 757 1475 832 1452 c 1
 834 1304 l 1
 774 1332 692 1356 608 1356 c 0
 499 1356 393 1328 393 1221 c 0
 393 1140 448 1104 506 1072 c 0
 636 1001 812 957 886 832 c 0
 902 804 911 772 911 737 c 0xd4
 911 606 808 531 725 480 c 1
 810 437 888 378 888 252 c 0
 888 146 831 76 765 30 c 0
 696 -18 595 -48 482 -48 c 0
 380 -48 288 -27 212 4 c 1
 210 153 l 1
 293 116 373 89 477 89 c 0
 578 89 663 119 699 182 c 0
 710 201 715 221 715 243 c 256
 715 322 652 352 594 379 c 0
 568 391 538 404 505 418 c 2
 421 454 l 2
 327 494 240 547 202 640 c 0
 191 667 185 697 185 729 c 0
 185 859 286 931 374 975 c 1xe8
591 547 m 1
 640 578 693 615 720 668 c 0
 729 685 733 703 733 723 c 0
 733 846 575 868 495 912 c 1
 435 880 362 831 362 741 c 0xe4
 362 653 434 616 498 587 c 0
 526 574 557 561 591 547 c 1
EndSplineSet
EndChar

StartChar: bullet
Encoding: 304 8226 140
Width: 989
Flags: W
HStem: 385 625<329.75 665.372>
VStem: 157 676<548.198 848.95>
LayerCount: 2
Fore
SplineSet
833 701 m 0
 833 604 786 528 732 478 c 0
 677 426 594 385 493 385 c 0
 340 385 232 469 183 575 c 0
 166 612 157 652 157 694 c 0
 157 842 259 941 368 985 c 0
 409 1002 453 1010 498 1010 c 0
 650 1010 757 925 806 820 c 0
 824 782 833 743 833 701 c 0
EndSplineSet
EndChar

StartChar: paragraph
Encoding: 119 182 141
Width: 1214
Flags: W
HStem: 1327 124<585.979 793 922 1009>
VStem: 107 478<953.866 1291.53> 442 143<-148 786> 793 129<-148 1327>
LayerCount: 2
Fore
SplineSet
442 -148 m 1xb0
 442 786 l 1xb0
 286 788 182 877 134 990 c 0
 116 1032 107 1079 107 1130 c 0xd0
 107 1394 359 1451 623 1451 c 2
 1009 1451 l 1
 1009 1327 l 1
 922 1327 l 1
 922 -148 l 1
 793 -148 l 1
 793 1327 l 1
 585 1327 l 1
 585 -148 l 1
 442 -148 l 1xb0
EndSplineSet
EndChar

StartChar: germandbls
Encoding: 160 223 142
Width: 1257
Flags: W
HStem: -23 132<640.424 916.358> 0 21G<175.963 341> 1382 129<455.447 755.967>
VStem: 174 163<0 1247.27> 823 188<1048.82 1317> 986 187<180.522 475.009>
LayerCount: 2
Fore
SplineSet
340 326 m 0xb8
 340 217 341 101 341 0 c 1
 176 0 l 1
 174 1071 l 2
 174 1282 267 1420 420 1480 c 0
 474 1501 535 1511 604 1511 c 0
 788 1511 925 1440 984 1316 c 0
 1002 1277 1011 1236 1011 1192 c 0x78
 1011 1093 955 1020 903 968 c 0
 852 916 788 868 719 838 c 0
 710 834 693 827 693 816 c 0
 693 810 703 804 722 798 c 0
 896 747 1054 661 1133 514 c 0
 1160 464 1173 407 1173 341 c 0
 1173 164 1064 52 934 3 c 0
 888 -14 841 -23 792 -23 c 0
 648 -23 543 47 471 138 c 1
 536 243 l 1
 597 173 679 109 788 109 c 0
 911 109 986 197 986 322 c 0xb4
 986 437 924 512 858 570 c 0
 777 641 672 699 572 756 c 1
 588 892 l 1
 681 934 763 1001 804 1095 c 0
 817 1125 823 1157 823 1191 c 0
 823 1318 731 1382 603 1382 c 0
 413 1382 337 1228 337 1038 c 0
 337 937 338 820 338 711 c 0
 338 587 340 450 340 326 c 0xb8
EndSplineSet
EndChar

StartChar: registered
Encoding: 112 174 143
Width: 1829
Flags: W
HStem: -32 117<656.758 1168.61> 664 119<745 934.665> 1072 120<742 1104.07> 1366 117<654.623 1164.46>
VStem: 103 127<493.066 960.684> 597 148<273 664 783 1072> 1146 155<823.556 1030.71> 1590 127<489.481 957.231>
LayerCount: 2
Fore
SplineSet
745 664 m 1
 745 273 l 1
 597 273 l 1
 597 1192 l 1
 870 1192 l 2
 1016 1192 1124 1170 1195 1126 c 0
 1266 1082 1301 1018 1301 935 c 0
 1301 775 1182 700 1036 681 c 1
 1113 609 1170 515 1231 418 c 0
 1258 375 1287 327 1320 273 c 1
 1152 273 l 1
 1029 485 l 2
 987 557 943 625 882 664 c 1
 745 664 l 1
868 783 m 2
 1006 783 1146 784 1146 920 c 0
 1146 1071 1019 1072 866 1072 c 0
 825 1072 783 1072 742 1072 c 1
 743 783 l 1
 868 783 l 2
913 85 m 0
 1126 85 1284 165 1396 270 c 0
 1505 372 1590 519 1590 724 c 0
 1590 924 1503 1077 1394 1180 c 0
 1283 1285 1116 1366 909 1366 c 0
 703 1366 537 1287 426 1182 c 0
 317 1079 230 926 230 727 c 0
 230 527 317 373 426 270 c 0
 538 164 705 85 913 85 c 0
914 -32 m 0
 662 -32 473 67 340 192 c 0
 246 280 173 391 132 526 c 0
 113 590 103 657 103 726 c 256
 103 967 213 1139 341 1260 c 0
 474 1385 659 1483 908 1483 c 0
 1160 1483 1347 1383 1480 1258 c 0
 1573 1170 1647 1059 1688 924 c 0
 1707 860 1717 794 1717 725 c 0
 1717 485 1608 313 1480 192 c 0
 1348 67 1163 -32 914 -32 c 0
EndSplineSet
EndChar

StartChar: copyright
Encoding: 108 169 144
Width: 1829
Flags: W
HStem: -32 117<656.758 1167.34> 249 131<783.657 1156.37> 1080 128<770.397 1139.22> 1366 117<654.623 1164.46>
VStem: 103 127<493.066 960.845> 460 153<547.528 914.524> 1590 127<490.726 957.231>
LayerCount: 2
Fore
SplineSet
972 380 m 0
 1073 380 1150 411 1210 460 c 1
 1249 339 l 1
 1163 279 1060 249 940 249 c 0
 713 249 563 378 496 542 c 0
 472 600 460 662 460 729 c 0
 460 959 583 1106 750 1172 c 0
 810 1196 877 1208 951 1208 c 0
 1066 1208 1164 1174 1245 1105 c 1
 1214 985 l 1
 1141 1048 1051 1080 944 1080 c 0
 782 1080 680 989 636 868 c 0
 621 826 613 781 613 733 c 0
 613 566 695 458 816 408 c 0
 861 390 913 380 972 380 c 0
230 727 m 0
 230 527 317 373 426 270 c 0
 538 164 705 85 913 85 c 0
 1120 85 1284 165 1395 270 c 0
 1503 372 1590 525 1590 724 c 0
 1590 924 1503 1077 1394 1180 c 0
 1283 1285 1116 1366 909 1366 c 0
 703 1366 537 1286 426 1182 c 0
 317 1080 230 926 230 727 c 0
914 -32 m 0
 662 -32 473 67 340 192 c 0
 246 280 173 391 132 526 c 0
 113 590 103 657 103 726 c 256
 103 967 213 1139 341 1260 c 0
 474 1385 659 1483 908 1483 c 0
 1160 1483 1347 1383 1480 1258 c 0
 1573 1170 1647 1059 1688 924 c 0
 1707 860 1717 794 1717 725 c 0
 1717 485 1608 313 1480 192 c 0
 1348 67 1163 -32 914 -32 c 0
EndSplineSet
EndChar

StartChar: trademark
Encoding: 312 8482 145
Width: 1869
Flags: W
HStem: 1350 101<70 323 447 707>
VStem: 323 124<686 1350> 819 121<686 1280> 1553 122<686 1281>
LayerCount: 2
Fore
SplineSet
1009 1451 m 1
 1245 900 l 1
 1495 1451 l 1
 1675 1451 l 1
 1675 686 l 1
 1553 686 l 1
 1553 1281 l 1
 1279 686 l 1
 1199 686 l 1
 940 1280 l 1
 940 686 l 1
 819 686 l 1
 819 1451 l 1
 1009 1451 l 1
707 1451 m 1
 707 1350 l 1
 447 1350 l 1
 447 686 l 1
 323 686 l 1
 323 1350 l 1
 70 1350 l 1
 70 1451 l 1
 707 1451 l 1
EndSplineSet
EndChar

StartChar: notequal
Encoding: 322 8800 146
Width: 1351
Flags: W
HStem: 325 120<170 463 656 1173> 728 121<170 671 862 1172>
LayerCount: 2
Fore
SplineSet
989 1105 m 1
 862 849 l 1
 1172 849 l 1
 1182 728 l 1
 804 728 l 1
 656 445 l 1
 1173 445 l 1
 1182 325 l 1
 597 325 l 1
 457 46 l 1
 335 64 l 1
 463 325 l 1
 170 325 l 1
 161 445 l 1
 524 445 l 1
 671 728 l 1
 170 728 l 1
 160 849 l 1
 728 849 l 1
 864 1123 l 1
 989 1105 l 1
EndSplineSet
EndChar

StartChar: AE
Encoding: 135 198 147
Width: 2028
Flags: W
HStem: 0 148<1257 1901> 398 148<506 1054> 672 148<1216 1837> 1308 148<944 994 1159 1878>
LayerCount: 2
Fore
SplineSet
944 1308 m 1
 506 546 l 1
 1054 546 l 1
 994 1308 l 1
 944 1308 l 1
836 1456 m 1
 1878 1456 l 1
 1878 1308 l 1
 1159 1308 l 1
 1197 820 l 1
 1837 820 l 1
 1837 672 l 1
 1216 672 l 1
 1257 148 l 1
 1901 148 l 1
 1901 0 l 1
 1104 0 l 1
 1073 398 l 1
 427 398 l 1
 201 0 l 1
 5 0 l 1
 836 1456 l 1
EndSplineSet
EndChar

StartChar: Oslash
Encoding: 153 216 148
Width: 1663
Flags: W
HStem: -23 148<704.618 1053.97> 1335 148<613.965 986.804>
VStem: 114 184<461.741 985.875> 1356 188<459.19 1004.82>
LayerCount: 2
Fore
SplineSet
1189 1402 m 1
 1408 1287 1544 1058 1544 726 c 0
 1544 373 1383 136 1130 32 c 0
 1041 -5 941 -23 829 -23 c 0
 764 -23 704 -17 648 -5 c 1
 605 -117 l 1
 442 -117 l 1
 502 41 l 1
 260 151 114 383 114 729 c 0
 114 1083 280 1320 532 1426 c 0
 621 1464 723 1483 837 1483 c 0
 915 1483 981 1474 1044 1458 c 1
 1079 1549 l 1
 1246 1549 l 1
 1189 1402 l 1
298 725 m 0
 298 470 395 284 559 191 c 1
 989 1314 l 1
 941 1328 888 1335 830 1335 c 0
 646 1335 518 1256 434 1151 c 0
 352 1049 298 901 298 725 c 0
1356 734 m 0
 1356 974 1273 1151 1130 1249 c 1
 703 137 l 1
 741 129 782 125 827 125 c 0
 1102 125 1260 278 1323 492 c 0
 1345 566 1356 647 1356 734 c 0
EndSplineSet
EndChar

StartChar: infinity
Encoding: 319 8734 149
Width: 1724
Flags: W
HStem: 236 119<325.969 604.145 1117.39 1398.32> 829 115<314.682 603.953 1115.36 1394.66>
VStem: 96 130<454.09 737.447> 1482 139<444.602 746.677>
LayerCount: 2
Fore
SplineSet
1263 355 m 0
 1414 355 1482 466 1482 618 c 0
 1482 717 1420 782 1348 812 c 0
 1320 823 1291 829 1258 829 c 256
 1182 829 1122 793 1075 756 c 0
 1019 712 970 652 929 592 c 1
 982 523 1031 463 1095 415 c 0
 1141 380 1190 355 1263 355 c 0
226 592 m 0
 226 485 290 410 366 375 c 0
 395 362 427 355 463 355 c 0
 538 355 594 388 640 424 c 0
 697 468 747 529 791 589 c 1
 729 679 658 768 552 810 c 0
 521 822 488 829 453 829 c 0
 341 829 272 766 242 683 c 0
 232 654 226 624 226 592 c 0
1621 595 m 0
 1621 425 1522 311 1398 262 c 0
 1354 245 1308 236 1260 236 c 0
 1186 236 1117 257 1054 299 c 0
 991 341 926 404 860 488 c 1
 785 391 698 297 574 254 c 0
 538 242 500 236 460 236 c 0
 285 236 172 339 122 467 c 0
 104 512 96 561 96 612 c 0
 96 715 146 795 204 847 c 0
 262 900 350 944 455 944 c 0
 600 944 696 873 772 796 c 0
 803 765 833 730 862 692 c 1
 936 789 1019 884 1144 926 c 0
 1180 938 1219 944 1262 944 c 0
 1434 944 1547 859 1596 735 c 0
 1613 692 1621 646 1621 595 c 0
EndSplineSet
EndChar

StartChar: plusminus
Encoding: 115 177 150
Width: 1458
Flags: W
HStem: 0 138<200 1249> 595 138<200 645 798 1245>
VStem: 645 149<223 595 733 1107>
LayerCount: 2
Fore
SplineSet
200 0 m 1
 200 138 l 1
 1249 138 l 1
 1249 0 l 1
 200 0 l 1
645 733 m 1
 645 1107 l 1
 794 1107 l 1
 794 733 l 1
 1245 733 l 1
 1245 595 l 1
 798 595 l 1
 798 223 l 1
 647 223 l 1
 647 595 l 1
 200 595 l 1
 188 733 l 1
 645 733 l 1
EndSplineSet
EndChar

StartChar: lessequal
Encoding: 323 8804 151
Width: 1351
Flags: W
HStem: 9 122<161 1175>
LayerCount: 2
Fore
SplineSet
1146 216 m 1
 197 666 l 1
 197 747 l 1
 1146 1219 l 1
 1146 1079 l 1
 372 710 l 1
 1146 357 l 1
 1146 216 l 1
1175 9 m 1
 161 9 l 1
 161 131 l 1
 1175 131 l 1
 1175 9 l 1
EndSplineSet
EndChar

StartChar: greaterequal
Encoding: 324 8805 152
Width: 1350
Flags: W
HStem: 9 122<161 1171>
LayerCount: 2
Fore
SplineSet
1171 9 m 1
 161 9 l 1
 161 131 l 1
 1171 131 l 1
 1171 9 l 1
196 1221 m 1
 1152 748 l 1
 1152 668 l 1
 192 218 l 1
 192 359 l 1
 974 707 l 1
 196 1081 l 1
 196 1221 l 1
EndSplineSet
EndChar

StartChar: yen
Encoding: 104 165 153
Width: 1189
Flags: W
HStem: 0 21G<508 680> 283 140<109 506 680 1071> 574 142<103 471 704 1068>
VStem: 508 172<0 283 423 574>
LayerCount: 2
Fore
SplineSet
680 0 m 1
 508 0 l 1
 508 283 l 1
 109 283 l 1
 98 423 l 1
 506 423 l 1
 506 574 l 1
 103 574 l 1
 103 716 l 1
 471 716 l 1
 26 1420 l 1
 231 1420 l 1
 354 1212 481 1007 601 796 c 1
 727 1002 849 1212 973 1420 c 1
 1159 1420 l 1
 704 716 l 1
 1068 716 l 1
 1068 574 l 1
 677 574 l 1
 677 423 l 1
 1071 423 l 1
 1071 283 l 1
 680 283 l 1
 680 0 l 1
EndSplineSet
EndChar

StartChar: partialdiff
Encoding: 313 8706 154
Width: 1167
Flags: W
HStem: -24 135<358.576 642.968> 869 133<454.77 754.492> 1399 134<378.321 723.932>
VStem: 83 169<228.781 633.605> 903 171<836 1176.17>
LayerCount: 2
Fore
SplineSet
495 111 m 0
 618 111 700 190 755 271 c 0
 821 369 868 507 885 655 c 1
 853 744 792 817 705 852 c 0
 676 864 644 869 609 869 c 0
 494 869 409 804 355 734 c 0
 296 658 252 547 252 417 c 0
 252 280 302 178 394 133 c 0
 424 118 458 111 495 111 c 0
565 1399 m 0
 451 1399 361 1351 291 1304 c 1
 280 1442 l 1
 355 1492 466 1533 588 1533 c 0
 853 1533 983 1373 1040 1156 c 0
 1063 1070 1074 969 1074 852 c 0
 1074 611 1020 407 931 252 c 0
 870 146 786 60 672 11 c 0
 618 -12 557 -24 492 -24 c 0
 284 -24 160 87 109 245 c 0
 92 299 83 357 83 420 c 0
 83 681 213 870 390 957 c 0
 451 987 516 1002 586 1002 c 0
 736 1002 832 927 902 836 c 1
 902 856 903 890 903 911 c 0
 903 1123 842 1293 706 1366 c 0
 664 1388 618 1399 565 1399 c 0
EndSplineSet
EndChar

StartChar: summation
Encoding: 316 8721 155
Width: 1264
Flags: W
HStem: -329 148<294 1220> 1281 142<325 1175>
LayerCount: 2
Fore
SplineSet
1220 -329 m 1
 57 -329 l 1
 57 -239 l 1
 697 552 l 1
 79 1328 l 1
 79 1423 l 1
 1175 1423 l 1
 1175 1281 l 1
 325 1281 l 1
 898 561 l 1
 294 -181 l 1
 1220 -181 l 1
 1220 -329 l 1
EndSplineSet
EndChar

StartChar: product
Encoding: 315 8719 156
Width: 1568
Flags: W
HStem: 1278 145<126 251 426 1149 1327 1440>
VStem: 251 175<-329 1278> 1149 178<-329 1278>
LayerCount: 2
Fore
SplineSet
1440 1278 m 1
 1327 1278 l 1
 1327 -329 l 1
 1149 -329 l 1
 1149 1278 l 1
 426 1278 l 1
 426 -329 l 1
 251 -329 l 1
 251 1278 l 1
 126 1278 l 1
 110 1423 l 1
 1456 1423 l 1
 1440 1278 l 1
EndSplineSet
EndChar

StartChar: integral
Encoding: 320 8747 157
Width: 702
Flags: W
HStem: -399 135<125.367 353.934> 1481 21G<817 829.69> 1496 135<597.594 826.722>
VStem: 393 164<-224.339 1454.7>
LayerCount: 2
Fore
SplineSet
232 -264 m 0xb0
 368 -264 393 -183 393 -47 c 2
 393 1255 l 2
 393 1477 469 1631 692 1631 c 0xb0
 747 1631 784 1620 828 1610 c 1
 830 1481 l 1xd0
 804 1491 757 1496 720 1496 c 0
 584 1496 557 1415 557 1279 c 2
 557 -23 l 2
 557 -245 483 -399 260 -399 c 0
 201 -399 172 -391 124 -378 c 1
 122 -249 l 1
 148 -259 195 -264 232 -264 c 0xb0
EndSplineSet
EndChar

StartChar: ordfeminine
Encoding: 109 170 158
Width: 745
Flags: W
HStem: 768 103<220.203 467.381> 1369 108<226.453 511.857>
VStem: 66 136<891.472 1055.26> 536 131<942.997 1110 1206.39 1342.42> 537 137<786 860>
LayerCount: 2
Fore
SplineSet
537 860 m 1xe8
 492 805 417 768 317 768 c 0
 205 768 122 814 85 890 c 0
 72 916 66 944 66 975 c 0
 66 1112 189 1174 309 1192 c 1
 383 1202 462 1201 536 1211 c 1
 536 1219 l 2
 536 1329 498 1369 388 1369 c 0
 289 1369 222 1340 178 1275 c 1
 111 1350 l 1
 162 1436 262 1477 394 1477 c 0
 558 1477 669 1400 669 1235 c 1
 667 914 l 2xf0
 667 870 669 846 674 786 c 1
 543 786 l 1
 537 860 l 1xe8
202 977 m 0
 202 899 260 871 338 871 c 0
 468 871 530 962 536 1085 c 1
 536 1110 l 1
 424 1088 202 1115 202 977 c 0
EndSplineSet
EndChar

StartChar: ordmasculine
Encoding: 123 186 159
Width: 824
Flags: W
HStem: 767 108<278.95 552.484> 1369 107<276.354 550.125>
VStem: 53 140<963.738 1281.28> 636 138<962.544 1279.44>
LayerCount: 2
Fore
SplineSet
415 1476 m 0
 591 1476 705 1390 751 1260 c 0
 766 1217 774 1171 774 1121 c 0
 774 954 690 845 570 795 c 0
 526 776 474 767 416 767 c 0
 191 767 53 901 53 1124 c 0
 53 1291 140 1398 261 1448 c 0
 306 1466 357 1476 415 1476 c 0
636 1119 m 0
 636 1264 558 1369 413 1369 c 0
 271 1369 193 1264 193 1123 c 0
 193 977 269 875 416 875 c 0
 557 875 636 979 636 1119 c 0
EndSplineSet
EndChar

StartChar: ae
Encoding: 167 230 160
Width: 1807
Flags: W
HStem: -25 138<307.438 646.654 1072.76 1426.4> 479 137<354.138 771 943 1524> 917 136<346.959 680.535 1089.47 1405.39>
VStem: 81 169<170.166 394.01> 771 172<246.414 479 616 761.941>
LayerCount: 2
Fore
SplineSet
540 917 m 0
 391 917 298 864 238 763 c 1
 148 856 l 1
 217 985 353 1053 550 1053 c 0
 669 1053 769 1007 830 944 c 0
 854 919 869 890 878 856 c 1
 944 971 1064 1053 1231 1053 c 0
 1553 1053 1697 845 1697 524 c 2
 1697 479 l 1
 942 479 l 1
 942 475 941 468 941 463 c 0
 941 253 1029 113 1242 113 c 0
 1397 113 1511 193 1577 292 c 1
 1664 206 l 1
 1582 65 1446 -25 1232 -25 c 0
 1044 -25 919 71 854 197 c 1
 776 72 641 -28 441 -28 c 0
 277 -28 160 39 108 152 c 0
 90 190 81 234 81 282 c 0
 81 611 443 615 771 615 c 1
 771 628 l 2
 771 793 706 917 540 917 c 0
250 290 m 0
 250 163 347 109 474 109 c 0
 694 109 773 262 773 479 c 1
 627 476 l 1
 486 472 349 463 282 387 c 0
 261 363 250 331 250 290 c 0
1524 616 m 1
 1507 790 1440 917 1250 917 c 0
 1105 917 1015 833 971 730 c 0
 956 694 946 656 943 616 c 1
 1524 616 l 1
EndSplineSet
EndChar

StartChar: oslash
Encoding: 185 248 161
Width: 1238
Flags: W
HStem: -23 132<510.785 796.638> 917 134<442.423 723.478>
VStem: 90 173<301.6 716.595> 966 174<294.856 728.088>
LayerCount: 2
Fore
SplineSet
358 34 m 1
 198 114 90 275 90 511 c 0
 90 762 215 931 394 1008 c 0
 460 1036 535 1051 620 1051 c 0
 675 1051 728 1044 780 1031 c 1
 884 1277 l 1
 987 1245 l 1
 880 993 l 1
 1038 912 1140 749 1140 513 c 0
 1140 265 1016 97 840 20 c 0
 775 -9 700 -23 616 -23 c 0
 561 -23 508 -16 456 -3 c 1
 346 -261 l 1
 247 -229 l 1
 358 34 l 1
725 902 m 1
 692 911 657 917 616 917 c 0
 434 917 329 804 286 663 c 0
 271 614 263 562 263 509 c 0
 263 352 322 236 415 170 c 1
 725 902 l 1
966 511 m 0
 966 665 913 787 821 855 c 1
 510 124 l 1
 543 114 579 109 620 109 c 0
 801 109 904 217 945 358 c 0
 959 406 966 458 966 511 c 0
EndSplineSet
EndChar

StartChar: exclamdown
Encoding: 100 161 164
Width: 737
Flags: W
HStem: 884 206<260 474>
VStem: 260 214<884 1090> 260 166<-384 694>
LayerCount: 2
Fore
SplineSet
260 1090 m 1xc0
 474 1090 l 1
 474 884 l 1
 260 884 l 1
 260 1090 l 1xc0
426 -384 m 1xa0
 260 -384 l 1
 260 694 l 1
 426 694 l 1
 426 -384 l 1xa0
EndSplineSet
EndChar

StartChar: logicalnot
Encoding: 111 172 165
Width: 1458
Flags: W
HStem: 659 139<200 1098>
VStem: 1098 150<238 659>
LayerCount: 2
Fore
SplineSet
1098 238 m 1
 1098 659 l 1
 200 659 l 1
 200 798 l 1
 1248 798 l 1
 1248 238 l 1
 1098 238 l 1
EndSplineSet
EndChar

StartChar: radical
Encoding: 318 8730 166
Width: 1314
Flags: W
VStem: 1082 130<1543 1596>
LayerCount: 2
Fore
SplineSet
1212 1596 m 1
 746 -153 l 1
 611 -153 l 1
 279 690 l 1
 107 662 l 1
 87 774 l 1
 382 825 l 1
 611 214 l 1
 669 41 l 1
 709 217 l 1
 1082 1596 l 1
 1212 1596 l 1
EndSplineSet
EndChar

StartChar: florin
Encoding: 249 402 167
Width: 1190
Flags: W
HStem: -332 138<83.1772 263.632> 803 140<342 487 682 872> 1294 142<768.235 1000.12>
LayerCount: 2
Fore
SplineSet
1000 1272 m 1
 967 1285 931 1294 891 1294 c 0
 776 1294 736 1236 718 1139 c 2
 682 943 l 1
 882 943 l 1
 872 803 l 1
 659 803 l 1
 532 120 l 1
 499 -52 457 -218 330 -295 c 0
 290 -320 238 -332 177 -332 c 0
 146 -332 111 -327 73 -316 c 1
 85 -178 l 1
 112 -189 138 -194 163 -194 c 256
 275 -194 312 -84 334 7 c 0
 397 260 436 538 487 803 c 1
 332 803 l 1
 342 943 l 1
 511 943 l 1
 534 1094 l 1
 560 1288 643 1436 865 1436 c 0
 915 1436 964 1428 1008 1417 c 1
 1000 1272 l 1
EndSplineSet
EndChar

StartChar: approxequal
Encoding: 321 8776 168
Width: 1351
Flags: W
HStem: 262 118<773.895 1007.16> 426 120<333.258 588.628> 634 118<763.165 1008.62> 799 118<333.926 582.814>
VStem: 154 114<285.97 353.917 658.052 726.852> 1077 110<453.682 521.649 831.059 893.584>
LayerCount: 2
Fore
SplineSet
904 380 m 0
 1004 380 1046 463 1077 546 c 1
 1187 518 l 1
 1154 375 1072 262 898 262 c 0
 819 262 762 289 707 317 c 0
 657 343 588 385 536 407 c 0
 506 420 477 426 449 426 c 0
 342 426 294 349 268 261 c 1
 154 289 l 1
 189 433 283 546 452 546 c 0
 550 546 635 500 702 463 c 0
 740 442 776 423 810 406 c 0
 844 389 875 380 904 380 c 0
902 752 m 0
 1003 752 1045 832 1075 918 c 1
 1185 890 l 1
 1155 745 1069 634 896 634 c 0
 816 634 761 660 704 689 c 0
 653 715 584 757 532 780 c 0
 503 793 474 799 446 799 c 0
 340 799 293 721 267 634 c 1
 152 661 l 1
 185 808 279 917 450 917 c 0
 597 917 706 816 814 772 c 0
 846 759 875 752 902 752 c 0
EndSplineSet
EndChar

StartChar: guillemotleft
Encoding: 110 171 169
Width: 1156
Flags: W
LayerCount: 2
Fore
SplineSet
521 914 m 1
 681 914 l 1
 416 541 l 1
 672 171 l 1
 515 171 l 1
 246 541 l 1
 521 914 l 1
890 914 m 1
 1049 914 l 1
 786 541 l 1
 1042 171 l 1
 885 171 l 1
 616 541 l 1
 890 914 l 1
EndSplineSet
EndChar

StartChar: guillemotright
Encoding: 124 187 170
Width: 1156
Flags: W
LayerCount: 2
Fore
SplineSet
720 171 m 1
 563 171 l 1
 824 542 l 1
 570 914 l 1
 726 914 l 1
 996 542 l 1
 720 171 l 1
325 171 m 1
 165 171 l 1
 430 542 l 1
 172 914 l 1
 330 914 l 1
 600 542 l 1
 325 171 l 1
EndSplineSet
EndChar

StartChar: ellipsis
Encoding: 305 8230 171
Width: 1620
Flags: W
HStem: -11 210<159 376 699 916 1239 1456>
VStem: 159 217<-11 199> 699 217<-11 199> 1239 217<-11 199>
CounterMasks: 1 70
LayerCount: 2
Fore
SplineSet
376 -11 m 1
 159 -11 l 1
 159 199 l 1
 376 199 l 1
 376 -11 l 1
916 -11 m 1
 699 -11 l 1
 699 199 l 1
 916 199 l 1
 916 -11 l 1
1456 -11 m 1
 1239 -11 l 1
 1239 199 l 1
 1456 199 l 1
 1456 -11 l 1
EndSplineSet
EndChar

StartChar: OE
Encoding: 229 338 175
Width: 2099
Flags: W
HStem: -23 148<602.929 1021.26> 0 148<1323 1984> 672 148<1323 1916> 1308 148<1323 1954> 1335 148<613.965 1041.92>
VStem: 114 184<453.304 985.875> 1151 172<226.079 672 820 1252.5>
LayerCount: 2
Fore
SplineSet
837 1483 m 0xae
 968 1483 1069 1439 1151 1381 c 1
 1151 1456 l 1
 1954 1456 l 1
 1954 1308 l 1
 1323 1308 l 1
 1323 820 l 1
 1916 820 l 1
 1916 672 l 1
 1323 672 l 1
 1323 148 l 1
 1984 148 l 1
 1984 0 l 1
 1151 0 l 1x76
 1151 105 l 1
 1070 32 970 -23 829 -23 c 0
 476 -23 256 154 163 418 c 0
 130 511 114 614 114 729 c 0
 114 1083 280 1320 532 1426 c 0
 621 1464 723 1483 837 1483 c 0xae
1151 1219 m 1
 1072 1288 972 1335 830 1335 c 0
 646 1335 518 1256 434 1151 c 0
 352 1049 298 901 298 725 c 0
 298 452 409 260 597 172 c 0
 663 141 740 125 827 125 c 0xae
 973 125 1075 186 1151 265 c 1
 1151 1219 l 1
EndSplineSet
EndChar

StartChar: oe
Encoding: 230 339 176
Width: 1970
Flags: W
HStem: -28 137<442.63 787.381 1257.71 1601.04> 470 139<1113 1695> 917 136<441.189 785.245 1263.47 1576.2>
VStem: 92 173<298.187 720.559> 945 168<285.367 470 609 742.293> 1695 173<609 784.827>
LayerCount: 2
Fore
SplineSet
1417 1053 m 0
 1726 1053 1868 835 1868 525 c 2
 1868 472 l 1
 1113 470 l 1
 1113 450 l 1
 1117 296 1181 185 1290 135 c 0
 1328 118 1371 109 1421 109 c 0
 1574 109 1685 192 1748 292 c 1
 1836 206 l 1
 1757 63 1616 -28 1410 -28 c 256
 1213 -28 1082 62 1022 209 c 1
 961 57 821 -28 610 -28 c 0
 354 -28 195 110 127 300 c 0
 104 365 92 435 92 509 c 256
 92 761 217 932 396 1010 c 0
 462 1039 536 1053 620 1053 c 0
 830 1053 952 964 1027 821 c 1
 1095 963 1216 1053 1417 1053 c 0
1695 609 m 1
 1695 793 1607 917 1423 917 c 256
 1277 917 1183 830 1140 725 c 0
 1125 688 1116 649 1113 609 c 1
 1695 609 l 1
945 511 m 0
 945 745 846 917 612 917 c 0
 433 917 330 802 288 663 c 0
 273 614 265 562 265 507 c 0
 265 327 338 200 462 141 c 0
 506 120 559 109 620 109 c 0
 845 109 945 287 945 511 c 0
EndSplineSet
EndChar

StartChar: endash
Encoding: 294 8211 177
Width: 1085
Flags: W
HStem: 489 137<-6 1084>
LayerCount: 2
Fore
SplineSet
1084 489 m 1
 -6 489 l 1
 -6 626 l 1
 1084 626 l 1
 1084 489 l 1
EndSplineSet
EndChar

StartChar: emdash
Encoding: 295 8212 178
Width: 2171
Flags: W
HStem: 489 137<-3 2160>
LayerCount: 2
Fore
SplineSet
2160 489 m 1
 -3 489 l 1
 -3 626 l 1
 2160 626 l 1
 2160 489 l 1
EndSplineSet
EndChar

StartChar: quotedblleft
Encoding: 299 8220 179
Width: 1024
Flags: W
HStem: 1023 440<466 494 815 844>
VStem: 179 636
LayerCount: 2
Fore
SplineSet
361 1023 m 1
 179 1023 l 1
 333 1463 l 1
 466 1463 l 1
 361 1023 l 1
711 1023 m 1
 528 1023 l 1
 682 1463 l 1
 815 1463 l 1
 711 1023 l 1
EndSplineSet
EndChar

StartChar: quotedblright
Encoding: 300 8221 180
Width: 1024
Flags: W
HStem: 1023 440<312 341 639 667>
VStem: 208 613
LayerCount: 2
Fore
SplineSet
312 1463 m 1
 494 1463 l 1
 341 1023 l 1
 208 1023 l 1
 312 1463 l 1
639 1463 m 1
 821 1463 l 1
 667 1023 l 1
 534 1023 l 1
 639 1463 l 1
EndSplineSet
EndChar

StartChar: quoteleft
Encoding: 296 8216 181
Width: 553
Flags: W
HStem: 1023 440<284 312>
VStem: 130 286
LayerCount: 2
Fore
SplineSet
312 1023 m 1
 130 1023 l 1
 284 1463 l 1
 416 1463 l 1
 312 1023 l 1
EndSplineSet
EndChar

StartChar: quoteright
Encoding: 297 8217 182
Width: 553
Flags: W
HStem: 1023 440<245 272>
VStem: 140 286
LayerCount: 2
Fore
SplineSet
245 1463 m 1
 426 1463 l 1
 272 1023 l 1
 140 1023 l 1
 245 1463 l 1
EndSplineSet
EndChar

StartChar: divide
Encoding: 184 247 183
Width: 1458
Flags: W
HStem: 21 210<619 836> 485 139<198 1246> 873 210<619 836>
VStem: 619 217<21 231 873 1083>
LayerCount: 2
Fore
SplineSet
198 485 m 1
 198 624 l 1
 1246 624 l 1
 1246 485 l 1
 198 485 l 1
836 873 m 1
 619 873 l 1
 619 1083 l 1
 836 1083 l 1
 836 873 l 1
836 21 m 1
 619 21 l 1
 619 231 l 1
 836 231 l 1
 836 21 l 1
EndSplineSet
EndChar

StartChar: lozenge
Encoding: 325 9674 184
Width: 1248
Flags: W
HStem: 1450 20G<557.931 688.953>
LayerCount: 2
Fore
SplineSet
615 98 m 1
 731 307 858 506 979 711 c 1
 861 916 739 1116 625 1324 c 1
 510 1114 382 917 261 713 c 1
 379 508 500 306 615 98 c 1
1130 712 m 1
 668 -45 l 1
 562 -45 l 1
 112 711 l 1
 570 1470 l 1
 677 1470 l 1
 1130 712 l 1
EndSplineSet
EndChar

StartChar: fraction
Encoding: 309 8260 187
Width: 368
Flags: W
HStem: 0 21G<-337 -173.423>
LayerCount: 2
Fore
SplineSet
717 1436 m 1
 -186 0 l 1
 -337 0 l 1
 568 1436 l 1
 717 1436 l 1
EndSplineSet
EndChar

StartChar: Euro
Encoding: 311 8364 188
Width: 1190
Flags: W
HStem: -21 146<587.112 956.121> 516 138<98 200 392 934> 784 138<97 199 395 967> 1303 145<599.359 945.752>
VStem: 199 176<654 783.859>
LayerCount: 2
Fore
SplineSet
767 125 m 0
 900 125 995 184 1084 253 c 1
 1083 75 l 1
 994 14 890 -21 751 -21 c 0
 407 -21 251 209 213 516 c 1
 78 516 l 1
 98 654 l 1
 200 654 l 1
 198 672 197 694 197 719 c 0
 197 741 198 761 199 784 c 1
 75 784 l 1
 97 922 l 1
 218 922 l 1
 260 1153 376 1330 569 1409 c 0
 632 1435 704 1448 783 1448 c 0
 928 1448 1028 1404 1106 1330 c 1
 1070 1141 l 1
 1009 1232 914 1303 776 1303 c 0
 541 1303 437 1116 395 922 c 1
 987 922 l 1
 967 784 l 1
 377 784 l 1
 376 781 375 777 375 773 c 2
 375 761 l 1
 374 742 375 720 376 702 c 2
 378 654 l 1
 953 654 l 1
 934 516 l 1
 392 516 l 1
 422 297 520 125 767 125 c 0
EndSplineSet
EndChar

StartChar: guilsinglleft
Encoding: 307 8249 189
Width: 642
Flags: W
VStem: 105 433
LayerCount: 2
Fore
SplineSet
379 914 m 1
 538 914 l 1
 275 541 l 1
 530 171 l 1
 374 171 l 1
 105 541 l 1
 379 914 l 1
EndSplineSet
EndChar

StartChar: guilsinglright
Encoding: 308 8250 190
Width: 642
Flags: W
VStem: 103 434
LayerCount: 2
Fore
SplineSet
260 171 m 1
 103 171 l 1
 365 542 l 1
 111 914 l 1
 266 914 l 1
 537 542 l 1
 260 171 l 1
EndSplineSet
EndChar

StartChar: uniFB01
Encoding: 327 64257 191
Width: 1205
Flags: W
HStem: 0 21G<246 411 869 1034> 919 107<45 246 411 869> 1307 155<877 1030> 1379 135<451.367 679.722>
VStem: 246 165<0 919 1026 1337.39> 869 165<0 919 1307 1462>
LayerCount: 2
Fore
SplineSet
573 1379 m 0xdc
 438 1379 412 1297 412 1162 c 2
 411 1026 l 1
 1034 1026 l 1
 1034 0 l 1
 869 0 l 1
 869 919 l 1
 411 919 l 1
 411 0 l 1
 246 0 l 1
 246 919 l 1
 45 919 l 1
 45 1026 l 1
 246 1026 l 1
 248 1138 l 2
 251 1358 322 1514 545 1514 c 0
 600 1514 637 1503 681 1493 c 1
 683 1364 l 1
 657 1374 610 1379 573 1379 c 0xdc
1030 1462 m 1xec
 1030 1307 l 1
 877 1307 l 1
 877 1462 l 1
 1030 1462 l 1xec
EndSplineSet
EndChar

StartChar: daggerdbl
Encoding: 303 8225 193
Width: 1022
Flags: W
HStem: 435 127<98 442 565 909> 983 132<104 442 572 916> 1431 20G<422 593>
VStem: 442 123<312.991 435 562 983 1115 1255.04>
LayerCount: 2
Fore
SplineSet
442 983 m 1
 104 983 l 1
 104 1115 l 1
 448 1115 l 1
 422 1451 l 1
 593 1451 l 1
 572 1115 l 1
 916 1115 l 1
 916 983 l 1
 565 983 l 1
 565 562 l 1
 909 562 l 1
 909 435 l 1
 565 435 l 1
 591 113 l 1
 420 113 l 1
 442 435 l 1
 98 435 l 1
 98 562 l 1
 442 562 l 1
 442 983 l 1
EndSplineSet
EndChar

StartChar: periodcentered
Encoding: 120 183 194
Width: 444
Flags: W
HStem: 513 210<76 293>
VStem: 76 217<513 723>
LayerCount: 2
Fore
SplineSet
293 513 m 1
 76 513 l 1
 76 723 l 1
 293 723 l 1
 293 513 l 1
EndSplineSet
EndChar

StartChar: quotesinglbase
Encoding: 298 8218 195
Width: 553
Flags: W
HStem: -238 439<231 258>
VStem: 125 287
LayerCount: 2
Fore
SplineSet
231 201 m 1
 412 201 l 1
 258 -238 l 1
 125 -238 l 1
 231 201 l 1
EndSplineSet
EndChar

StartChar: quotedblbase
Encoding: 301 8222 196
Width: 1024
Flags: W
HStem: -238 439<641 670 999 1028>
VStem: 178 646
LayerCount: 2
Fore
SplineSet
283 201 m 1
 465 201 l 1
 312 -238 l 1
 178 -238 l 1
 283 201 l 1
641 201 m 1
 824 201 l 1
 670 -238 l 1
 537 -238 l 1
 641 201 l 1
EndSplineSet
EndChar

StartChar: perthousand
Encoding: 306 8240 197
Width: 2386
Flags: W
HStem: -27 113<1050.91 1296.44 1838.65 2085.35> 567 114<1050.32 1297.34 1838.32 2085.49> 740 113<289.189 535.13> 1335 112<289.59 533.924>
VStem: 73 146<929.808 1258.97> 604 145<929.05 1258.41> 835 145<162.547 492.099> 1367 144<162.189 491.509> 1623 145<162.765 492.099> 2156 143<162.084 491.341>
LayerCount: 2
Fore
SplineSet
2156 327 m 0
 2156 461 2096 567 1962 567 c 0
 1829 567 1768 461 1768 328 c 0
 1768 192 1828 86 1963 86 c 0
 2095 86 2156 195 2156 327 c 0
1964 681 m 0
 2184 681 2299 545 2299 325 c 0
 2299 161 2220 49 2103 -0 c 0
 2061 -18 2013 -27 1959 -27 c 0
 1742 -27 1623 112 1623 328 c 0
 1623 494 1699 604 1818 654 c 0
 1860 672 1909 681 1964 681 c 0
412 1447 m 0
 632 1447 749 1312 749 1092 c 0
 749 928 670 815 553 766 c 0
 511 748 463 740 410 740 c 0
 192 740 73 878 73 1095 c 0
 73 1260 150 1371 268 1420 c 0
 310 1438 358 1447 412 1447 c 0
1176 681 m 256
 1395 681 1511 544 1511 325 c 0
 1511 160 1434 50 1316 -0 c 0
 1274 -18 1226 -27 1172 -27 c 256
 954 -27 835 111 835 328 c 0
 835 494 911 604 1030 654 c 0
 1072 672 1121 681 1176 681 c 256
1367 327 m 0
 1367 463 1309 567 1174 567 c 256
 1041 567 980 461 980 328 c 0
 980 192 1040 86 1175 86 c 0
 1306 86 1367 196 1367 327 c 0
604 1093 m 0
 604 1228 545 1335 411 1335 c 0
 280 1335 219 1227 219 1096 c 0
 219 960 278 853 414 853 c 0
 545 853 604 963 604 1093 c 0
245 -21 m 1
 1183 1436 l 1
 1332 1436 l 1
 398 -21 l 1
 245 -21 l 1
EndSplineSet
EndChar

StartChar: breve
Encoding: 281 728 213
Width: 629
Flags: W
HStem: 1218 107<164.764 453.884> 1434 20G<32 126.5 500 596>
VStem: 32 87<1372.81 1454> 510 86<1381.03 1454>
LayerCount: 2
Fore
SplineSet
309 1325 m 256
 411 1325 490 1370 510 1454 c 1
 596 1454 l 1
 583 1300 482 1218 316 1218 c 0
 145 1218 45 1294 32 1454 c 1
 119 1454 l 1
 134 1366 207 1325 309 1325 c 256
EndSplineSet
EndChar

StartChar: dotaccent
Encoding: 282 729 214
Width: 524
Flags: W
HStem: 1246 163<184 344>
VStem: 184 160<1246 1409>
LayerCount: 2
Fore
SplineSet
184 1246 m 1
 184 1409 l 1
 344 1409 l 1
 344 1246 l 1
 184 1246 l 1
EndSplineSet
EndChar

StartChar: hungarumlaut
Encoding: 286 733 215
Width: 969
Flags: W
HStem: 1174 313
VStem: 162 663
LayerCount: 2
Fore
SplineSet
429 1174 m 1
 649 1487 l 1
 825 1487 l 1
 549 1174 l 1
 429 1174 l 1
162 1174 m 1
 379 1487 l 1
 555 1487 l 1
 280 1174 l 1
 162 1174 l 1
EndSplineSet
EndChar

StartChar: ogonek
Encoding: 284 731 216
Width: 508
Flags: W
HStem: -390 109<199.651 440.837>
VStem: 48 141<-267.501 -114.012>
LayerCount: 2
Fore
SplineSet
189 -199 m 0
 189 -250 238 -281 289 -281 c 0
 353 -281 397 -268 443 -250 c 1
 443 -361 l 1
 397 -380 330 -390 266 -390 c 0
 172 -390 99 -357 65 -296 c 0
 54 -276 48 -252 48 -225 c 0
 48 -167 82 -122 115 -89 c 0
 155 -49 209 -14 263 12 c 1
 392 0 l 1
 323 -42 246 -86 204 -151 c 0
 194 -167 189 -183 189 -199 c 0
EndSplineSet
EndChar

StartChar: caron
Encoding: 280 711 217
Width: 699
Flags: W
HStem: 1170 323
VStem: 29 633
LayerCount: 2
Fore
SplineSet
662 1493 m 1
 424 1170 l 1
 268 1170 l 1
 29 1493 l 1
 176 1493 l 1
 340 1278 l 1
 508 1493 l 1
 662 1493 l 1
EndSplineSet
EndChar

StartChar: macron
Encoding: 113 175 218
Width: 850
Flags: W
HStem: 1380 130<-3 853>
LayerCount: 2
Fore
SplineSet
853 1380 m 1
 -3 1380 l 1
 -3 1510 l 1
 853 1510 l 1
 853 1380 l 1
EndSplineSet
EndChar

StartChar: pi
Encoding: 293 960 219
Width: 1288
Flags: W
HStem: -8 155<1027.56 1183.59> 907 133<71.2335 311 476.921 851 1010 1214>
VStem: 172 202<0.990959 99.6051> 851 159<160.328 907>
LayerCount: 2
Fore
SplineSet
17 977 m 1
 96 1037 227 1040 369 1040 c 2
 1214 1040 l 1
 1214 907 l 1
 1010 907 l 1
 1010 288 l 2
 1010 206 1024 147 1108 147 c 0
 1133 147 1159 151 1188 160 c 1
 1186 130 l 2
 1185 120 1185 110 1185 100 c 0
 1185 65 1188 35 1198 6 c 1
 1153 -2 1108 -8 1061 -8 c 0
 888 -8 851 104 851 279 c 2
 851 907 l 1
 480 907 l 1
 458 619 439 335 374 88 c 0
 364 51 353 21 341 0 c 1
 172 0 l 1
 232 105 257 263 276 411 c 0
 296 567 306 739 311 907 c 1
 194 904 111 887 34 846 c 1
 17 977 l 1
EndSplineSet
EndChar

StartChar: uni2206
Encoding: 314 8710 220
Width: 1314
Flags: W
HStem: 0 162<269 1033>
LayerCount: 2
Fore
SplineSet
1263 0 m 1
 40 0 l 1
 40 80 l 1
 561 1429 l 1
 743 1429 l 1
 1263 80 l 1
 1263 0 l 1
1033 162 m 1
 681 1111 l 1
 647 1218 l 1
 615 1111 l 1
 269 162 l 1
 1033 162 l 1
EndSplineSet
EndChar

StartChar: Omega
Encoding: 291 937 222
Width: 1603
Flags: W
HStem: 0 138<104 435 1155 1474> 1309 140<588.459 1018.08>
VStem: 114 179<508.551 998.701> 1303 178<522.415 1003.05>
LayerCount: 2
Fore
SplineSet
93 138 m 1
 435 137 l 1
 295 240 186 385 138 578 c 0
 122 640 114 707 114 776 c 0
 114 994 196 1157 312 1266 c 0
 426 1374 596 1449 809 1449 c 0
 1026 1449 1191 1368 1300 1254 c 0
 1406 1143 1481 980 1481 772 c 0
 1481 621 1437 498 1381 398 c 0
 1323 296 1242 206 1155 137 c 1
 1483 138 l 1
 1474 0 l 1
 953 0 l 1
 949 121 l 1
 1099 221 1221 367 1276 560 c 0
 1294 622 1303 687 1303 754 c 0
 1303 1004 1194 1181 1022 1264 c 0
 960 1294 887 1309 804 1309 c 0
 555 1309 399 1168 330 982 c 0
 305 914 293 840 293 759 c 0
 293 531 386 361 500 240 c 0
 543 195 590 155 642 121 c 1
 645 0 l 1
 104 0 l 1
 93 138 l 1
EndSplineSet
EndChar

StartChar: Eth
Encoding: 145 208 223
Width: 1546
Flags: W
HStem: 0 148<365 901.771> 658 137<-1 193 365 571> 1308 148<365 883.25>
VStem: 193 172<148 658 795 1308> 1248 182<478.803 984.706>
LayerCount: 2
Fore
SplineSet
508 1456 m 2
 1056 1456 1430 1273 1430 724 c 0
 1430 359 1234 144 956 51 c 0
 854 17 739 0 610 0 c 2
 193 0 l 1
 193 658 l 1
 -1 658 l 1
 -1 795 l 1
 193 795 l 1
 193 1456 l 1
 508 1456 l 2
365 658 m 1
 365 148 l 1
 626 148 l 2
 929 148 1131 268 1210 490 c 0
 1235 560 1248 638 1248 721 c 0
 1248 1048 1107 1218 840 1278 c 0
 750 1298 647 1308 529 1308 c 2
 365 1308 l 1
 365 795 l 1
 571 795 l 1
 571 658 l 1
 365 658 l 1
EndSplineSet
EndChar

StartChar: multiply
Encoding: 152 215 224
Width: 1458
Flags: W
LayerCount: 2
Fore
SplineSet
825 554 m 1
 1122 258 l 1
 1018 154 l 1
 722 450 l 1
 425 154 l 1
 322 257 l 1
 618 554 l 1
 322 851 l 1
 425 954 l 1
 722 657 l 1
 1018 954 l 1
 1122 850 l 1
 825 554 l 1
EndSplineSet
EndChar

StartChar: Lslash
Encoding: 225 321 227
Width: 1120
Flags: W
HStem: 0 148<374 1073> 1007 20G<626.978 659> 1436 20G<202 374>
VStem: 202 172<148 605 849 1456>
LayerCount: 2
Fore
SplineSet
1073 0 m 1
 202 0 l 1
 202 605 l 1
 15 489 l 1
 15 626 l 1
 202 742 l 1
 202 1456 l 1
 374 1456 l 1
 374 849 l 1
 659 1027 l 1
 659 890 l 1
 374 712 l 1
 374 148 l 1
 1073 148 l 1
 1073 0 l 1
EndSplineSet
EndChar

StartChar: lslash
Encoding: 226 322 228
Width: 503
Flags: W
HStem: 0 21G<168 333> 1007 20G<470.471 504> 1472 20G<168 333>
VStem: 168 165<0 689 925 1492>
LayerCount: 2
Fore
SplineSet
333 1492 m 1
 333 925 l 1
 504 1027 l 1
 504 890 l 1
 333 788 l 1
 333 0 l 1
 168 0 l 1
 168 689 l 1
 0 589 l 1
 0 726 l 1
 168 826 l 1
 168 1492 l 1
 333 1492 l 1
EndSplineSet
EndChar

StartChar: eth
Encoding: 177 240 231
Width: 1190
Flags: W
HStem: -23 141<409.179 743.671> 757 140<393.48 752.941> 1026 137<620 826 1045 1190> 1470 20G<634.19 732.5>
VStem: 88 176<262.875 626.865> 918 175<723 1011.16>
LayerCount: 2
Fore
SplineSet
826 1163 m 1
 766 1271 684 1344 574 1406 c 1
 653 1490 l 1
 812 1428 920 1315 993 1163 c 1
 1190 1163 l 1
 1190 1026 l 1
 1045 1026 l 1
 1075 921 1093 805 1093 672 c 0
 1093 361 1006 121 798 22 c 0
 734 -8 662 -23 581 -23 c 0
 347 -23 189 93 122 261 c 0
 99 318 88 380 88 446 c 256
 88 662 199 802 356 864 c 0
 412 886 475 897 545 897 c 0
 725 897 846 838 918 723 c 1
 918 733 l 1
 917 847 906 937 882 1026 c 1
 620 1026 l 1
 620 1163 l 1
 826 1163 l 1
572 757 m 0
 373 757 264 638 264 441 c 0
 264 291 339 188 446 142 c 0
 484 126 526 118 573 118 c 0
 798 118 903 290 903 512 c 2
 903 536 l 1
 859 664 742 757 572 757 c 0
EndSplineSet
EndChar

StartChar: mu
Encoding: 292 956 234
Width: 1217
Flags: W
HStem: -23 132<415.953 741.602> 0 21G<880.556 1051> 1006 20G<157 322 878 1043>
VStem: 157 165<-202 31 209.451 1026> 878 165<0 135 253.916 1026>
LayerCount: 2
Fore
SplineSet
540 -23 m 0xb8
 449 -23 379 -3 322 31 c 1
 322 -202 l 1
 157 -202 l 1
 157 1026 l 1
 322 1026 l 1
 322 399 l 2
 322 214 396 109 578 109 c 0xb8
 729 109 820 196 858 310 c 0
 871 350 878 392 878 436 c 2
 878 1026 l 1
 1043 1026 l 1
 1043 246 l 2
 1043 156 1044 84 1051 0 c 1
 881 0 l 1x78
 878 135 l 1
 801 30 688 -23 540 -23 c 0xb8
EndSplineSet
EndChar

StartChar: thorn
Encoding: 191 254 235
Width: 1239
Flags: W
HStem: -427 21G<158 323> -23 132<479.34 806.95> 917 134<481.397 814.55> 1435 20G<158 325>
VStem: 158 165<-427 135 278.191 740.777 882 1455> 963 176<287.575 753.312>
LayerCount: 2
Fore
SplineSet
325 882 m 1
 399 982 507 1051 668 1051 c 0
 912 1051 1054 916 1110 728 c 0
 1129 664 1139 598 1139 527 c 0
 1139 284 1037 106 874 22 c 0
 815 -8 747 -23 668 -23 c 0
 524 -23 409 30 323 135 c 1
 323 -427 l 1
 158 -427 l 1
 158 1455 l 1
 325 1455 l 1
 325 882 l 1
963 521 m 0
 963 745 875 917 650 917 c 0
 411 917 323 732 323 494 c 256
 323 321 389 195 506 138 c 0
 546 119 592 109 644 109 c 0
 870 109 963 296 963 521 c 0
EndSplineSet
EndChar

StartChar: Thorn
Encoding: 159 222 236
Width: 1274
Flags: W
HStem: 0 21G<203 375> 443 149<375 869.016> 1164 148<375 867.285> 1436 20G<203 375>
VStem: 203 172<0 443 592 1164 1312 1456> 1016 184<723.013 1035.14>
LayerCount: 2
Fore
SplineSet
544 1312 m 2
 899 1312 1200 1231 1200 876 c 0
 1200 714 1121 611 1018 546 c 0
 913 480 764 443 597 443 c 2
 375 443 l 1
 375 0 l 1
 203 0 l 1
 203 1456 l 1
 375 1456 l 1
 375 1312 l 1
 544 1312 l 2
1016 874 m 0
 1016 1114 828 1164 588 1164 c 2
 375 1164 l 1
 375 592 l 1
 636 592 l 2
 802 592 930 639 988 747 c 0
 1007 782 1016 825 1016 874 c 0
EndSplineSet
EndChar

StartChar: brokenbar
Encoding: 105 166 237
Width: 500
Flags: W
VStem: 168 157<-491 393 677 1545>
LayerCount: 2
Fore
SplineSet
168 -491 m 1
 168 393 l 1
 325 393 l 1
 325 -491 l 1
 168 -491 l 1
168 677 m 1
 168 1545 l 1
 325 1545 l 1
 325 677 l 1
 168 677 l 1
EndSplineSet
EndChar

StartChar: periodcentered
Encoding: 330 -1 238
Width: 444
Flags: W
HStem: 513 210<76 293>
VStem: 76 217<513 723>
LayerCount: 2
Fore
SplineSet
293 513 m 1
 76 513 l 1
 76 723 l 1
 293 723 l 1
 293 513 l 1
EndSplineSet
EndChar

StartChar: minus
Encoding: 317 8722 239
Width: 1458
Flags: W
HStem: 496 137<198 1247>
LayerCount: 2
Fore
SplineSet
1247 633 m 1
 1247 496 l 1
 198 496 l 1
 198 633 l 1
 1247 633 l 1
EndSplineSet
EndChar

StartChar: uni030F
Encoding: 288 783 240
Width: 969
Flags: W
HStem: 1174 313
VStem: 162 663
LayerCount: 2
Fore
SplineSet
438 1174 m 1
 162 1487 l 1
 338 1487 l 1
 558 1174 l 1
 438 1174 l 1
707 1174 m 1
 432 1487 l 1
 608 1487 l 1
 825 1174 l 1
 707 1174 l 1
EndSplineSet
EndChar

StartChar: uni0326
Encoding: 290 806 241
Width: 540
Flags: W
HStem: -625 463<185 209>
VStem: 78 294
LayerCount: 2
Fore
SplineSet
185 -162 m 1
 372 -162 l 1
 209 -625 l 1
 78 -625 l 1
 185 -162 l 1
EndSplineSet
EndChar

StartChar: uni0311
Encoding: 289 785 242
Width: 629
Flags: W
HStem: 1347 107<164.764 453.884>
VStem: 32 87<1218 1299.19> 510 86<1218 1290.97>
LayerCount: 2
Fore
SplineSet
32 1218 m 1
 45 1378 145 1454 316 1454 c 0
 482 1454 583 1372 596 1218 c 1
 510 1218 l 1
 490 1302 411 1347 309 1347 c 256
 207 1347 134 1306 119 1218 c 1
 32 1218 l 1
EndSplineSet
EndChar

StartChar: uni00B2
Encoding: 116 178 271
Width: 1190
Flags: W
HStem: 604 118<465 829> 1323 117<439.982 677.134>
VStem: 701 129<1097.72 1297.27>
LayerCount: 2
Fore
SplineSet
291 1270 m 1
 334 1370 429 1440 567 1440 c 0
 685 1440 771 1388 810 1307 c 0
 823 1279 830 1248 830 1213 c 0
 830 1108 778 1033 724 968 c 0
 650 879 557 802 465 722 c 1
 829 722 l 1
 829 604 l 1
 283 604 l 1
 283 715 l 1
 389 812 495 908 584 1006 c 0
 621 1047 649 1084 670 1118 c 0
 691 1152 701 1183 701 1211 c 0
 701 1286 640 1323 561 1323 c 0
 466 1323 409 1262 376 1192 c 1
 291 1270 l 1
EndSplineSet
EndChar

StartChar: uni00B3
Encoding: 117 179 272
Width: 1190
Flags: W
HStem: 586 115<338.508 611.276> 970 119<380 595.665> 1322 119<339.325 603.576>
VStem: 626 133<1121.73 1299.46> 651 129<742.782 933.14>
LayerCount: 2
Fore
SplineSet
485 1322 m 0xf0
 403 1322 342 1284 293 1244 c 1
 235 1340 l 1
 290 1394 383 1441 487 1441 c 0
 606 1441 694 1388 736 1310 c 0
 751 1282 759 1250 759 1213 c 0xf0
 759 1124 714 1065 652 1032 c 1
 726 999 780 937 780 834 c 0
 780 708 694 634 596 603 c 0
 560 592 521 586 481 586 c 0
 374 586 292 626 235 683 c 1
 295 779 l 1
 351 727 411 701 476 701 c 0
 570 701 651 745 651 837 c 0xe8
 651 948 549 971 436 971 c 0
 429 971 415 970 406 970 c 2
 380 970 l 1
 380 1089 l 1
 429 1089 l 2
 530 1089 626 1110 626 1210 c 0
 626 1291 566 1322 485 1322 c 0xf0
EndSplineSet
EndChar

StartChar: uni00B9
Encoding: 122 185 273
Width: 1190
Flags: W
HStem: 604 119<270 392 513 635>
VStem: 392 121<723 1271>
LayerCount: 2
Fore
SplineSet
392 1008 m 2
 392 1067 391 1116 391 1168 c 2
 391 1271 l 1
 347 1248 289 1222 239 1203 c 1
 240 1333 l 1
 307 1354 356 1381 408 1412 c 1
 513 1427 l 1
 513 720 l 1
 635 720 l 1
 635 604 l 1
 270 604 l 1
 270 723 l 1
 392 723 l 1
 392 1008 l 2
EndSplineSet
EndChar

StartChar: uni2074
Encoding: 310 8308 274
Width: 897
Flags: W
HStem: 803 107<117 356 478 587>
VStem: 356 122<615 803 910 1244>
LayerCount: 2
Fore
SplineSet
356 615 m 1
 356 803 l 1
 -22 803 l 1
 -22 894 l 1
 344 1412 l 1
 478 1412 l 1
 478 910 l 1
 587 910 l 1
 597 803 l 1
 476 803 l 1
 476 615 l 1
 356 615 l 1
356 910 m 1
 356 1244 l 1
 117 910 l 1
 356 910 l 1
EndSplineSet
EndChar

StartChar: currency
Encoding: 103 164 278
Width: 1238
Flags: W
HStem: 274 71<441.686 704.987> 979 72<422.43 696.39>
VStem: 188 93<479.196 839.162> 844 94<475.435 849.768>
LayerCount: 2
Fore
SplineSet
188 659 m 0
 188 827 261 947 372 1006 c 1
 221 1285 l 1
 261 1301 l 1
 411 1023 l 1
 452 1042 504 1051 566 1051 c 0
 606 1051 648 1045 691 1034 c 1
 793 1301 l 1
 835 1285 l 1
 732 1018 l 1
 860 960 938 840 938 663 c 0
 938 511 873 397 780 336 c 1
 931 56 l 1
 896 40 l 1
 747 316 l 1
 694 291 636 274 560 274 c 0
 515 274 479 278 450 287 c 1
 354 40 l 1
 317 56 l 1
 410 301 l 1
 277 353 188 476 188 659 c 0
844 660 m 0
 844 847 749 979 561 979 c 0
 417 979 334 890 299 780 c 0
 287 742 281 702 281 660 c 256
 281 518 344 417 441 370 c 0
 476 353 518 345 565 345 c 0
 746 345 844 480 844 660 c 0
EndSplineSet
EndChar

StartChar: macron
Encoding: 331 -1 279
Width: 728
Flags: W
HStem: 1183 134<79 651>
VStem: 79 572<1183 1317>
LayerCount: 2
Fore
SplineSet
79 1183 m 1
 79 1317 l 1
 651 1317 l 1
 651 1183 l 1
 79 1183 l 1
EndSplineSet
EndChar

StartChar: uniF6C3
Encoding: 326 63171 311
Width: 599
Flags: W
HStem: -603 463<217 241>
VStem: 110 294
LayerCount: 2
Fore
SplineSet
217 -140 m 1
 404 -140 l 1
 241 -603 l 1
 110 -603 l 1
 217 -140 l 1
EndSplineSet
EndChar

StartChar: uni0237
Encoding: 278 567 326
Width: 503
Flags: W
HStem: -429 146<-101 103.552> 1006 20G<175 340>
VStem: 175 165<-201.104 1026>
LayerCount: 2
Fore
SplineSet
-18 -283 m 0
 138 -283 175 -146 175 31 c 2
 175 1026 l 1
 340 1026 l 1
 340 73 l 2
 340 -150 296 -339 140 -407 c 0
 106 -422 67 -429 21 -429 c 0
 -23 -429 -63 -425 -101 -416 c 1
 -102 -273 l 1
 -72 -278 -48 -283 -18 -283 c 0
EndSplineSet
EndChar

StartChar: kgreenlandic
Encoding: 222 312 329
Width: 1082
Flags: W
HStem: 0 21G<178 343 831.344 1072> 1006 20G<178 343 789.128 1034>
VStem: 178 165<0 471 557 1026>
LayerCount: 2
Fore
SplineSet
343 1026 m 1
 343 557 l 1
 809 1026 l 1
 1034 1026 l 1
 504 512 l 1
 695 338 881 174 1072 0 c 1
 853 0 l 1
 343 471 l 1
 343 0 l 1
 178 0 l 1
 178 1026 l 1
 343 1026 l 1
EndSplineSet
EndChar

StartChar: uni0307
Encoding: 287 775 330
Width: 524
Flags: W
HStem: 1246 163<184 344>
VStem: 184 160<1246 1409>
LayerCount: 2
Fore
SplineSet
184 1246 m 1
 184 1409 l 1
 344 1409 l 1
 344 1246 l 1
 184 1246 l 1
EndSplineSet
EndChar

StartChar: n.alt
Encoding: 96 -1 331
Width: 1263
Flags: W
HStem: -24 126<1062.6 1100.1> 0 21G<180 345> 911 140<478.678 799.944> 1006 20G<154 324.099>
VStem: 154 167<933.468 1026> 180 165<0 784.872> 881 165<118.234 825.475>
LayerCount: 2
Fore
SplineSet
881 265 m 6xaa
 883 572 l 6
 883 576 883 581 883 585 c 0
 883 790 850 911 639 911 c 4
 485 911 345 799 345 652 c 6
 345 0 l 5
 180 0 l 5
 180 699 l 6x66
 180 784 160 977 154 1026 c 5
 321 1026 l 5x5a
 343 884 l 5
 416 988 499 1051 667 1051 c 4
 960 1051 1048 867 1048 577 c 0
 1048 574 1048 570 1048 567 c 6
 1046 270 l 6
 1046 265 1046 260 1046 255 c 0
 1046 142 1057 117 1132 102 c 5
 1096 -24 l 5
 908 -2 881 62 881 248 c 0
 881 254 881 259 881 265 c 6xaa
EndSplineSet
EndChar

StartChar: J.alt
Encoding: 97 -1 332
Width: 939
Flags: W
HStem: -23 148<164.471 466.473> 1436 20G<583 755>
VStem: 583 172<260.62 1456>
LayerCount: 2
Fore
SplineSet
122 197 m 1
 176 156 237 125 326 125 c 0
 517 125 583 296 583 488 c 2
 583 1456 l 1
 755 1456 l 1
 755 499 l 2
 755 256 671 82 502 11 c 0
 448 -12 388 -23 321 -23 c 0
 208 -23 131 21 71 81 c 1
 122 197 l 1
EndSplineSet
EndChar

StartChar: k.alt
Encoding: 98 -1 333
Width: 1082
Flags: W
HStem: 0 21G<178 418.5 872.34 1066> 1006 20G<805.741 998> 1506 20G<178 343>
VStem: 178 165<308 1526>
LayerCount: 2
Fore
SplineSet
693 583 m 5
 1066 0 l 5
 885 0 l 5
 578 485 l 5
 693 583 l 5
303 0 m 1
 178 0 l 1
 178 1526 l 1
 343 1526 l 1
 343 308 l 1
 819 1026 l 5
 998 1026 l 5
 766 684 534 343 303 0 c 1
EndSplineSet
EndChar

StartChar: nine.alt
Encoding: 334 -1 334
Width: 1190
Flags: W
HStem: -23 142<326.846 686.849> 533 140<394.064 753.713> 1312 141<406.194 738.686>
VStem: 88 176<803.513 1162.22> 918 175<422.659 1088.5>
LayerCount: 2
Fore
SplineSet
918 707 m 1
 846 592 725 533 545 533 c 0
 326 533 182 642 120 802 c 0
 99 857 88 918 88 984 c 256
 88 1208 211 1352 376 1417 c 0
 437 1441 506 1453 581 1453 c 0
 859 1453 1000 1282 1059 1056 c 0
 1082 970 1093 870 1093 758 c 0
 1093 416 984 152 761 34 c 0
 689 -4 607 -23 514 -23 c 0
 362 -23 251 34 183 121 c 1
 237 234 l 1
 308 157 401 119 517 119 c 0
 659 119 754 196 813 288 c 0
 877 386 915 527 918 683 c 1
 918 707 l 1
264 989 m 0
 264 792 373 673 572 673 c 0
 722 673 829 744 879 847 c 0
 897 884 906 925 906 971 c 0
 906 1125 821 1232 714 1283 c 0
 673 1302 626 1312 573 1312 c 0
 423 1312 327 1228 286 1117 c 0
 271 1078 264 1035 264 989 c 0
EndSplineSet
EndChar
